<svg width="25" height="24" viewBox="0 0 25 24" fill="none" xmlns="http://www.w3.org/2000/svg">
<path d="M8.85886 4.26635L4.33297 8.72158C4.11948 8.93173 4.11948 9.26798 4.33297 9.47813C4.5465 9.68828 4.88814 9.68828 5.10146 9.47813L9.62751 5.0229C9.84105 4.81275 9.84105 4.47651 9.62751 4.26635C9.41381 4.0562 9.07239 4.0562 8.85886 4.26635Z" fill="#1A1719"/>
<path d="M7.70635 7.58645L6.21188 9.05752C5.99839 9.26767 5.99839 9.60391 6.21188 9.81407C6.42541 10.0242 6.76721 10.0242 6.98053 9.81407L8.47484 8.343C8.68833 8.13285 8.68833 7.79661 8.47484 7.58645C8.26148 7.3763 7.91984 7.3763 7.70635 7.58645Z" fill="#1A1719"/>
<path d="M2.79718 7.20876L7.32323 2.75354C7.53677 2.54339 7.53677 2.20714 7.32323 1.99699C7.1097 1.78684 6.76828 1.78684 6.55475 1.99699L2.0714 6.49425C1.85791 6.7044 1.85791 7.04064 2.0714 7.25079C2.28477 7.41892 2.62657 7.41892 2.79718 7.20876Z" fill="#1A1719"/>
<path d="M2.45475 5.35915L5.44362 2.41702C5.65715 2.20687 5.65715 1.87063 5.44362 1.66048C5.23013 1.45032 4.88866 1.45032 4.67496 1.66048L1.64355 4.64464C1.43002 4.85479 1.43002 5.19103 1.64355 5.40118C1.89975 5.56931 2.24122 5.56931 2.45475 5.35915Z" fill="#1A1719"/>
<path d="M9.24458 6.32518C9.5511 6.32518 9.79975 6.56979 9.79975 6.87157C9.79975 7.17335 9.5511 7.41797 9.24458 7.41797C8.9381 7.41797 8.68945 7.17335 8.68945 6.87157C8.68945 6.56979 8.9381 6.32518 9.24458 6.32518Z" fill="#1A1719"/>
<path d="M17.1005 19.1449L13.77 16.4969L16.7586 13.5548L19.4489 16.8332L17.1005 19.1449ZM5.82826 1.02975C6.93834 1.02975 7.96308 1.40802 8.81696 2.08051L2.07086 8.67928C1.3878 7.83868 1.00329 6.82994 1.00329 5.73715C1.046 3.13127 3.18099 1.02975 5.82826 1.02975ZM9.24398 9.09959C7.49351 10.8228 4.71797 10.9489 2.83935 9.43583L9.58562 2.79502C11.08 4.64436 10.9947 7.37634 9.24398 9.09959ZM7.27998 11.3272C9.32941 10.8228 10.9947 9.22568 11.5071 7.16619L14.752 11.117L11.2509 14.4795L7.27998 11.3272ZM12.0621 15.152L15.3927 11.9156L16.0756 12.7142L12.9161 15.8245L12.0621 15.152ZM21.5838 20.4058C20.5164 20.4898 19.7047 19.0608 19.4059 18.4303L20.559 17.2955C20.7726 17.0854 20.7726 16.7912 20.6016 16.581C20.0892 15.9505 12.0621 6.15746 11.7204 5.73715C11.7204 4.26609 11.1226 2.79502 10.0126 1.70223C7.70687 -0.567411 3.99219 -0.567411 1.72923 1.70223C-0.576409 3.97188 -0.576409 7.62852 1.72923 9.85614C2.88207 10.991 4.33379 11.5374 5.82826 11.5374C6.04175 11.7055 16.4171 19.9434 16.8442 20.2797C17.0574 20.4478 17.3567 20.4478 17.5702 20.2377L18.6377 19.1869C19.278 20.4058 20.3028 21.5406 21.7117 21.4145C22.0532 21.3725 22.1389 21.4986 22.1815 21.5406C22.4803 21.8768 22.3947 22.8015 22.2241 23.3479C22.1389 23.6421 22.3094 23.9363 22.6082 23.9784C22.9071 24.0624 23.2059 23.8943 23.249 23.6001C23.2916 23.432 23.7614 21.7087 22.9928 20.8261C22.7365 20.658 22.3094 20.3217 21.5838 20.4058Z" fill="#1A1719"/>
<path d="M4.71844 18.3047C4.41969 18.3047 4.16348 18.0525 4.16348 17.7583C4.16348 17.4641 4.41969 17.2119 4.71844 17.2119C5.01753 17.2119 5.27374 17.4641 5.27374 17.7583C5.27374 18.0525 4.97465 18.3047 4.71844 18.3047ZM6.29847 17.7583C6.29847 16.8757 5.57249 16.1612 4.67572 16.1612C3.7793 16.1612 3.05353 16.8757 3.05353 17.7583C3.05353 18.641 3.7793 19.3555 4.67572 19.3555C5.57249 19.3555 6.29847 18.641 6.29847 17.7583Z" fill="#1A1719"/>
<path d="M19.9187 6.19974C20.3459 6.19974 20.73 6.53598 20.73 6.99832C20.73 7.46065 20.3885 7.7969 19.9187 7.7969C19.4494 7.7969 19.1075 7.41862 19.1075 6.99832C19.1075 6.57801 19.4494 6.19974 19.9187 6.19974ZM19.9187 8.84766C20.9436 8.84766 21.7974 8.00705 21.7974 6.99832C21.7974 5.98959 20.9436 5.14898 19.9187 5.14898C18.8943 5.14898 18.04 5.98959 18.04 6.99832C18.04 8.00705 18.8943 8.84766 19.9187 8.84766Z" fill="#1A1719"/>
<path d="M24.4447 1.45018C24.7515 1.45018 24.9997 1.69479 24.9997 1.99657C24.9997 2.29835 24.7515 2.54297 24.4447 2.54297C24.1383 2.54297 23.8896 2.29835 23.8896 1.99657C23.8896 1.69479 24.1383 1.45018 24.4447 1.45018Z" fill="#1A1719"/>
<path d="M16.4597 2.50194C16.7665 2.50194 17.0147 2.74655 17.0147 3.04833C17.0147 3.35011 16.7665 3.59473 16.4597 3.59473C16.1532 3.59473 15.9051 3.35011 15.9051 3.04833C15.9051 2.74655 16.1532 2.50194 16.4597 2.50194Z" fill="#1A1719"/>
<path d="M14.3253 20.9101C14.6322 20.9101 14.8808 21.1548 14.8808 21.4565C14.8808 21.7583 14.6322 22.0029 14.3253 22.0029C14.0189 22.0029 13.7705 21.7583 13.7705 21.4565C13.7705 21.1548 14.0189 20.9101 14.3253 20.9101Z" fill="#1A1719"/>
<path d="M6.29833 21.9609C6.60464 21.9609 6.85329 22.2055 6.85329 22.5073C6.85329 22.8091 6.60464 23.0537 6.29833 23.0537C5.99165 23.0537 5.74316 22.8091 5.74316 22.5073C5.74316 22.2055 5.99165 21.9609 6.29833 21.9609Z" fill="#1A1719"/>
<path d="M7.36474 15.1103C7.67121 15.1103 7.91969 15.355 7.91969 15.6567C7.91969 15.9585 7.67121 16.2031 7.36474 16.2031C7.05822 16.2031 6.80957 15.9585 6.80957 15.6567C6.80957 15.355 7.05822 15.1103 7.36474 15.1103Z" fill="#1A1719"/>
<path d="M21.243 12.5039C21.5494 12.5039 21.7976 12.7485 21.7976 13.0503C21.7976 13.3521 21.5494 13.5967 21.243 13.5967C20.9361 13.5967 20.6875 13.3521 20.6875 13.0503C20.6875 12.7485 20.9361 12.5039 21.243 12.5039Z" fill="#1A1719"/>
<path d="M2.02863 12.5039C2.33528 12.5039 2.58393 12.7485 2.58393 13.0503C2.58393 13.3521 2.33528 13.5967 2.02863 13.5967C1.72228 13.5967 1.47363 13.3521 1.47363 13.0503C1.47363 12.7485 1.72228 12.5039 2.02863 12.5039Z" fill="#1A1719"/>
</svg>
