<svg width="25" height="24" viewBox="0 0 25 24" fill="none" xmlns="http://www.w3.org/2000/svg">
<path d="M21.8919 13.4835C19.9007 15.3637 17.2047 15.3229 15.3382 13.7288C17.495 12.5843 18.947 10.0909 18.947 7.22971C18.947 5.51298 18.4074 3.95975 17.5364 2.73352C19.403 2.24302 21.477 2.89701 22.7633 4.73637C24.6294 7.35233 24.2562 11.2763 21.8919 13.4835ZM2.18935 4.73637C3.55808 2.81526 5.67349 2.20215 7.58142 2.77439C6.71049 4.00063 6.21269 5.55386 6.21269 7.22971C6.21269 10.0501 7.62283 12.4616 9.73824 13.647C9.15762 14.1784 8.45276 14.5462 7.70607 14.7506C6.17128 15.1185 4.47042 14.7506 3.14311 13.4835C0.737392 11.2763 0.322428 7.35233 2.18935 4.73637ZM12.6418 14.4236L12.8492 15.3637H12.0197L12.2272 14.4236C12.3514 14.4236 12.5175 14.4236 12.6418 14.4236ZM8.95014 17.0396L8.49417 15.5681C9.32369 15.282 10.0704 14.7915 10.7338 14.1375C10.8999 14.1784 11.0241 14.2193 11.1902 14.2601L10.8999 15.7725C10.8171 16.0995 11.066 16.3856 11.3977 16.3856H11.9369V20.5957L8.61842 17.6936C8.86731 17.6118 9.03338 17.3257 8.95014 17.0396ZM7.04221 15.8951C7.16645 15.8951 7.29111 15.8542 7.45717 15.8542L7.74749 16.7943L6.95939 16.8761L7.04221 15.8951ZM17.91 15.8951L17.9928 16.8352L17.2047 16.7535L17.495 15.8134C17.6611 15.8542 17.7853 15.8951 17.91 15.8951ZM16.4994 15.5681L16.0435 17.0396C15.9602 17.3257 16.1263 17.6118 16.4166 17.6936L12.9739 20.6365V16.3856H13.5131C13.8448 16.3856 14.0937 16.0995 14.0109 15.7725L13.6792 14.3419C13.8862 14.301 14.0937 14.2601 14.3012 14.1784C14.9232 14.7915 15.6699 15.282 16.4994 15.5681ZM12.6003 1.05766C15.5453 1.05766 17.9514 3.83713 17.9514 7.22971C17.9514 10.4588 15.7942 13.1156 13.0567 13.4018C9.8629 13.6879 7.2911 10.7449 7.2911 7.22971C7.24969 3.83713 9.65541 1.05766 12.6003 1.05766ZM23.6342 4.12325C21.9333 1.71165 19.1959 1.01679 16.8316 1.83428C14.384 -0.618195 10.6924 -0.618195 8.28669 1.87515C5.88097 0.935038 3.06028 1.67078 1.35943 4.08237C-0.797399 7.10709 -0.341025 11.6033 2.39642 14.1375C3.43342 15.1185 4.71932 15.6907 6.00522 15.8134L5.88097 17.2848C5.83956 17.6118 6.12986 17.8571 6.46159 17.8571L7.20786 17.7753L11.688 21.6584L10.0286 23.089C9.82148 23.2934 9.77966 23.5795 9.98714 23.8248C10.1946 24.0291 10.4849 24.07 10.7338 23.8656L11.9369 22.8029V23.4569C11.9369 23.743 12.1858 23.9883 12.4761 23.9883C12.7664 23.9883 13.0153 23.743 13.0153 23.4569V22.8029L14.2184 23.8656C14.4258 24.07 14.7576 24.0291 14.9647 23.8248C15.1721 23.6204 15.1307 23.2934 14.9232 23.089L13.3056 21.6993L17.8686 17.7753L18.6149 17.8571C18.947 17.898 19.1959 17.6118 19.1959 17.2848L19.0712 15.8134C20.3985 15.6907 21.643 15.1185 22.68 14.1375C25.3346 11.685 25.791 7.18884 23.6342 4.12325Z" fill="#1A1719"/>
<path d="M9.03358 7.51562C9.3239 7.51562 9.5728 7.27038 9.5728 6.98426C9.5728 4.81791 10.9829 3.0603 12.7252 3.0603C13.0155 3.0603 13.2644 2.81506 13.2644 2.52893C13.2644 2.24281 13.0155 1.99757 12.7252 1.99757C10.4023 1.99757 8.5358 4.20479 8.5358 6.94338C8.5358 7.31125 8.74327 7.51562 9.03358 7.51562Z" fill="#1A1719"/>
<path d="M3.26791 20.1863C3.18467 20.1454 3.06043 20.1454 2.93619 20.1863C2.93619 20.0637 2.89436 19.9819 2.85295 19.9002C2.9776 19.8593 3.06043 19.8184 3.10185 19.6958C3.18468 19.7775 3.26791 19.8593 3.35074 19.9002C3.30933 19.9819 3.26791 20.0637 3.26791 20.1863ZM4.88554 18.8783H3.88995L3.59964 17.9382C3.51681 17.7338 3.30933 17.6112 3.10185 17.6112C2.89437 17.6112 2.68729 17.7338 2.60406 17.9791L2.31374 18.9192H1.31816C1.11068 18.9192 0.903198 19.0418 0.820369 19.287C0.73754 19.4914 0.820366 19.7367 1.02785 19.8593L1.81595 20.4315L1.52564 21.2899C1.4424 21.4943 1.52564 21.7395 1.73312 21.8621C1.89878 21.9848 2.14768 21.9848 2.35516 21.8621L3.14326 21.2899L3.93136 21.8621C4.01419 21.9439 4.13884 21.9439 4.22167 21.9439C4.5534 21.9439 4.84371 21.6169 4.71947 21.2899L4.42915 20.3498L5.21725 19.7775C5.38332 19.6549 5.46615 19.4097 5.42474 19.2053C5.30049 19.0418 5.09302 18.8783 4.88554 18.8783Z" fill="#1A1719"/>
<path d="M22.3487 19.4925C22.1826 19.6152 22.0998 19.8604 22.1412 20.0648L22.2654 20.4327L21.9337 20.2283C21.7676 20.1057 21.5187 20.1057 21.3117 20.2283L20.9795 20.4327L21.1456 20.0648C21.2284 19.8604 21.1456 19.6152 20.9381 19.4925L20.6478 19.2473H21.021C21.2284 19.2473 21.4359 19.1247 21.5187 18.8794L21.6434 18.5116L21.7676 18.8794C21.8509 19.0838 22.0169 19.2473 22.2654 19.2473H22.639L22.3487 19.4925ZM24.2566 18.2254H22.639L22.1412 16.7131C22.0584 16.5087 21.8923 16.3452 21.6434 16.3452C21.3945 16.3452 21.2284 16.4678 21.1456 16.7131L20.6478 18.2254H19.0716C18.8641 18.2254 18.6566 18.3481 18.5738 18.5933C18.491 18.8385 18.5738 19.0429 18.7813 19.1655L20.0672 20.1057L19.5694 21.618C19.4866 21.8224 19.5694 22.0676 19.7769 22.1903C19.9429 22.3129 20.1918 22.3129 20.3989 22.1903L21.6848 21.2501L22.9707 22.1903C23.0539 22.272 23.1782 22.272 23.261 22.272C23.5927 22.272 23.8831 21.945 23.7588 21.618L23.261 20.1057L24.5469 19.1655C24.713 19.0429 24.7958 18.7977 24.7544 18.5933C24.6716 18.3889 24.4641 18.2254 24.2566 18.2254Z" fill="#1A1719"/>
<path d="M7.00125 22.0258C6.8766 22.0258 6.75236 21.9032 6.75236 21.7806C6.75236 21.658 6.8766 21.5354 7.00125 21.5354C7.12549 21.5354 7.25015 21.658 7.25015 21.7806C7.25015 21.9032 7.12549 22.0258 7.00125 22.0258ZM7.00125 20.4726C6.29598 20.4726 5.71536 21.0449 5.71536 21.7397C5.71536 22.4346 6.29598 23.0068 7.00125 23.0068C7.70653 23.0068 8.28715 22.4346 8.28715 21.7397C8.28715 21.0449 7.70653 20.4726 7.00125 20.4726Z" fill="#1A1719"/>
<path d="M23.8415 1.54761C24.1392 1.54761 24.3807 1.7855 24.3807 2.07898C24.3807 2.37246 24.1392 2.61035 23.8415 2.61035C23.5438 2.61035 23.3023 2.37246 23.3023 2.07898C23.3023 1.7855 23.5438 1.54761 23.8415 1.54761Z" fill="#1A1719"/>
<path d="M1.56689 0.52613C1.86458 0.52613 2.10609 0.76402 2.10609 1.0575C2.10609 1.35098 1.86458 1.58887 1.56689 1.58887C1.2692 1.58887 1.02768 1.35098 1.02768 1.0575C1.02768 0.76402 1.2692 0.52613 1.56689 0.52613Z" fill="#1A1719"/>
<path d="M1.56689 15.364C1.86458 15.364 2.10609 15.6019 2.10609 15.8954C2.10609 16.1889 1.86458 16.4268 1.56689 16.4268C1.2692 16.4268 1.02768 16.1889 1.02768 15.8954C1.02768 15.6019 1.2692 15.364 1.56689 15.364Z" fill="#1A1719"/>
<path d="M3.59966 22.4753C3.89735 22.4753 4.13887 22.7132 4.13887 23.0067C4.13887 23.3002 3.89735 23.5381 3.59966 23.5381C3.30197 23.5381 3.06046 23.3002 3.06046 23.0067C3.06046 22.7132 3.30197 22.4753 3.59966 22.4753Z" fill="#1A1719"/>
<path d="M16.5822 20.4324C16.8799 20.4324 17.1214 20.6703 17.1214 20.9637C17.1214 21.2572 16.8799 21.4951 16.5822 21.4951C16.2841 21.4951 16.043 21.2572 16.043 20.9637C16.043 20.6703 16.2841 20.4324 16.5822 20.4324Z" fill="#1A1719"/>
<path d="M21.2699 22.5164C21.568 22.5164 21.8095 22.7543 21.8095 23.0477C21.8095 23.3412 21.568 23.5791 21.2699 23.5791C20.9722 23.5791 20.7307 23.3412 20.7307 23.0477C20.7307 22.7543 20.9722 22.5164 21.2699 22.5164Z" fill="#1A1719"/>
<path d="M23.3023 15.323C23.6004 15.323 23.8415 15.5609 23.8415 15.8544C23.8415 16.1479 23.6004 16.3857 23.3023 16.3857C23.0046 16.3857 22.7635 16.1479 22.7635 15.8544C22.7635 15.5609 23.0046 15.323 23.3023 15.323Z" fill="#1A1719"/>
</svg>
