<svg width="44" height="44" viewBox="0 0 44 44" fill="none" xmlns="http://www.w3.org/2000/svg">
<path fill-rule="evenodd" clip-rule="evenodd" d="M35.5312 5.65018C35.8769 5.63811 36.2133 5.76386 36.4663 5.99979C36.7193 6.23572 36.8682 6.56249 36.8802 6.90821L37.4265 22.5508C37.4386 22.8966 37.3128 23.2329 37.0769 23.4859C36.841 23.7389 36.5142 23.8878 36.1685 23.8999C35.8227 23.912 35.4864 23.7862 35.2334 23.5503C34.9804 23.3144 34.8315 22.9876 34.8194 22.6419L34.383 10.146L8.85515 37.524C8.73818 37.6495 8.59765 37.7506 8.44159 37.8218C8.28553 37.8929 8.11698 37.9326 7.94558 37.9386C7.77418 37.9445 7.60328 37.9167 7.44263 37.8566C7.28199 37.7966 7.13475 37.7055 7.00931 37.5885C6.88388 37.4715 6.78272 37.331 6.7116 37.1749C6.64047 37.0189 6.60079 36.8503 6.5948 36.6789C6.58882 36.5075 6.61665 36.3366 6.67671 36.176C6.73678 36.0153 6.82789 35.8681 6.94486 35.7427L32.4754 8.36717L19.9796 8.80354C19.6339 8.81561 19.2975 8.68985 19.0445 8.45392C18.7915 8.218 18.6426 7.89123 18.6305 7.5455C18.6184 7.19978 18.7442 6.86342 18.9801 6.61042C19.2161 6.35742 19.5428 6.2085 19.8885 6.19643L35.5312 5.65018Z" fill="white"/>
</svg>
