<svg width="14" height="8" viewBox="0 0 14 8" fill="none" xmlns="http://www.w3.org/2000/svg">
<path fill-rule="evenodd" clip-rule="evenodd" d="M8.83401 0.234229C8.98403 0.0842524 9.18748 0 9.39961 0C9.61174 0 9.81519 0.0842524 9.96521 0.234229L13.1652 3.43423C13.3152 3.58425 13.3994 3.7877 13.3994 3.99983C13.3994 4.21196 13.3152 4.41541 13.1652 4.56543L9.96521 7.76543C9.81433 7.91116 9.61225 7.99179 9.40249 7.98997C9.19273 7.98815 8.99208 7.90401 8.84375 7.75568C8.69543 7.60736 8.61129 7.40671 8.60947 7.19695C8.60765 6.98719 8.68828 6.78511 8.83401 6.63423L10.6684 4.79983H1.39961C1.18744 4.79983 0.983953 4.71554 0.833924 4.56551C0.683895 4.41549 0.599609 4.212 0.599609 3.99983C0.599609 3.78766 0.683895 3.58417 0.833924 3.43414C0.983953 3.28411 1.18744 3.19983 1.39961 3.19983H10.6684L8.83401 1.36543C8.68403 1.21541 8.59978 1.01196 8.59978 0.799829C8.59978 0.587698 8.68403 0.384251 8.83401 0.234229V0.234229Z" fill="white"/>
</svg>
