<svg width="25" height="24" viewBox="0 0 25 24" fill="none" xmlns="http://www.w3.org/2000/svg">
<g clip-path="url(#clip0_2208_10211)">
<path d="M7.34879 0.0970459C7.5698 0.0970459 7.78176 0.184843 7.93804 0.341124C8.09432 0.497404 8.18212 0.709365 8.18212 0.930379V2.48871H17.1309V0.941094C17.1309 0.72008 17.2187 0.508118 17.375 0.351838C17.5313 0.195558 17.7432 0.10776 17.9643 0.10776C18.1853 0.10776 18.3972 0.195558 18.5535 0.351838C18.7098 0.508118 18.7976 0.72008 18.7976 0.941094V2.48871H22.0238C22.655 2.48871 23.2605 2.7394 23.707 3.18566C24.1534 3.63191 24.4044 4.23721 24.4047 4.86847V21.5268C24.4044 22.1581 24.1534 22.7634 23.707 23.2096C23.2605 23.6559 22.655 23.9066 22.0238 23.9066H2.97617C2.34491 23.9066 1.73948 23.6559 1.293 23.2096C0.846519 22.7634 0.59553 22.1581 0.595215 21.5268L0.595215 4.86847C0.59553 4.23721 0.846519 3.63191 1.293 3.18566C1.73948 2.7394 2.34491 2.48871 2.97617 2.48871H6.51545V0.929189C6.51577 0.708381 6.6037 0.496725 6.75995 0.340703C6.9162 0.18468 7.12798 0.0970457 7.34879 0.0970459ZM2.26188 9.31371V21.5268C2.26188 21.6206 2.28036 21.7135 2.31625 21.8002C2.35215 21.8868 2.40476 21.9656 2.47109 22.0319C2.53742 22.0982 2.61616 22.1508 2.70282 22.1867C2.78948 22.2226 2.88237 22.2411 2.97617 22.2411H22.0238C22.1176 22.2411 22.2105 22.2226 22.2971 22.1867C22.3838 22.1508 22.4625 22.0982 22.5289 22.0319C22.5952 21.9656 22.6478 21.8868 22.6837 21.8002C22.7196 21.7135 22.7381 21.6206 22.7381 21.5268V9.33038L2.26188 9.31371ZM8.53212 17.5006V19.4839H6.5476V17.5006H8.53212ZM13.4916 17.5006V19.4839H11.5083V17.5006H13.4916ZM18.4524 17.5006V19.4839H16.4678V17.5006H18.4524ZM8.53212 12.7661V14.7494H6.5476V12.7661H8.53212ZM13.4916 12.7661V14.7494H11.5083V12.7661H13.4916ZM18.4524 12.7661V14.7494H16.4678V12.7661H18.4524ZM6.51545 4.15419H2.97617C2.88237 4.15419 2.78948 4.17266 2.70282 4.20856C2.61616 4.24446 2.53742 4.29707 2.47109 4.3634C2.40476 4.42973 2.35215 4.50847 2.31625 4.59513C2.28036 4.68179 2.26188 4.77467 2.26188 4.86847V7.64824L22.7381 7.6649V4.86847C22.7381 4.77467 22.7196 4.68179 22.6837 4.59513C22.6478 4.50847 22.5952 4.42973 22.5289 4.3634C22.4625 4.29707 22.3838 4.24446 22.2971 4.20856C22.2105 4.17266 22.1176 4.15419 22.0238 4.15419H18.7976V5.26014C18.7976 5.48115 18.7098 5.69312 18.5535 5.8494C18.3972 6.00568 18.1853 6.09347 17.9643 6.09347C17.7432 6.09347 17.5313 6.00568 17.375 5.8494C17.2187 5.69312 17.1309 5.48115 17.1309 5.26014V4.15419H8.18212V5.24943C8.18212 5.47044 8.09432 5.6824 7.93804 5.83868C7.78176 5.99496 7.5698 6.08276 7.34879 6.08276C7.12777 6.08276 6.91581 5.99496 6.75953 5.83868C6.60325 5.6824 6.51545 5.47044 6.51545 5.24943V4.15419Z" fill="url(#paint0_linear_2208_10211)"/>
</g>
<defs>
<linearGradient id="paint0_linear_2208_10211" x1="1.2453" y1="12.0605" x2="17.7007" y2="12.0605" gradientUnits="userSpaceOnUse">
<stop stop-color="#FF3639"/>
<stop offset="1" stop-color="#E12FA2"/>
</linearGradient>
<clipPath id="clip0_2208_10211">
<rect width="23.8095" height="23.8095" fill="white" transform="translate(0.595215 0.0970459)"/>
</clipPath>
</defs>
</svg>
