<svg width="16" height="16" viewBox="0 0 16 16" fill="none" xmlns="http://www.w3.org/2000/svg">
<path d="M0 8C0 3.58172 3.58172 0 8 0V0C12.4183 0 16 3.58172 16 8V8C16 12.4183 12.4183 16 8 16V16C3.58172 16 0 12.4183 0 8V8Z" fill="white"/>
<g clip-path="url(#clip0_2834_1121)">
<path d="M6.86216 11.3337C6.7316 11.3343 6.60601 11.273 6.51227 11.1628L4.15098 8.3853C4.10391 8.32961 4.06636 8.26322 4.04046 8.18993C4.01456 8.11663 4.00083 8.03788 4.00004 7.95815C3.99844 7.79714 4.04968 7.64195 4.14248 7.52673C4.23528 7.41151 4.36203 7.3457 4.49486 7.34377C4.62769 7.34183 4.75571 7.40394 4.85077 7.51643L6.86416 9.88372L11.1489 4.83953C11.2441 4.72704 11.3722 4.665 11.5051 4.66704C11.6381 4.66909 11.7649 4.73506 11.8577 4.85044C11.9505 4.96582 12.0016 5.12116 12 5.28228C11.9983 5.44341 11.9439 5.59713 11.8487 5.70961L7.21206 11.1628C7.11831 11.273 6.99273 11.3343 6.86216 11.3337Z" fill="#1A1719"/>
</g>
<defs>
<clipPath id="clip0_2834_1121">
<rect width="8" height="8" fill="white" transform="translate(4 4)"/>
</clipPath>
</defs>
</svg>
