<svg width="41" height="40" viewBox="0 0 41 40" fill="none" xmlns="http://www.w3.org/2000/svg">
<path d="M12.1673 10.8327H28.4173C31.9285 10.8327 33.684 10.8327 34.9451 11.6753C35.4911 12.0401 35.9598 12.5089 36.3246 13.0548C37.0608 14.1565 37.1538 15.6355 37.1656 18.3327M20.5006 10.8327L19.445 8.72123C18.5703 6.97198 17.771 5.21122 15.8327 4.48437C14.9838 4.16602 14.014 4.16602 12.0744 4.16602C9.04698 4.16602 7.53325 4.16602 6.39742 4.79988C5.58777 5.25172 4.91968 5.9198 4.46785 6.72945C3.83398 7.86528 3.83398 9.37902 3.83398 12.4065V17.4993C3.83398 25.356 3.83398 29.2845 6.27477 31.7252C8.44165 33.8922 11.781 34.1353 18.0006 34.1625H18.834" stroke="#1A1719" stroke-width="2.6" stroke-linecap="round"/>
<path d="M30.5007 33.6912V35.834M30.5007 33.6912C28.5727 33.6912 26.8742 32.7442 25.8778 31.3062M30.5007 33.6912C32.4287 33.6912 34.1272 32.7442 35.1235 31.3062M25.8778 31.3062L23.8347 32.6197M25.8778 31.3062C25.2887 30.4557 24.9452 29.4335 24.9452 28.334C24.9452 27.2345 25.2885 26.2125 25.8777 25.3622M35.1235 31.3062L37.1667 32.6197M35.1235 31.3062C35.7127 30.4557 36.0562 29.4335 36.0562 28.334C36.0562 27.2345 35.7128 26.2125 35.1237 25.3622M30.5007 22.9768C32.4288 22.9768 34.1275 23.924 35.1237 25.3622M30.5007 22.9768C28.5725 22.9768 26.8738 23.924 25.8777 25.3622M30.5007 22.9768V20.834M35.1237 25.3622L37.1673 24.0483M25.8777 25.3622L23.834 24.0483" stroke="#1A1719" stroke-width="2.6" stroke-linecap="round"/>
</svg>
