<svg width="18" height="18" viewBox="0 0 18 18" fill="none" xmlns="http://www.w3.org/2000/svg">
<g id="stash:plan-duotone">
<path id="Vector" d="M4.5 1.6875C3.95299 1.6875 3.42839 1.9048 3.04159 2.29159C2.6548 2.67839 2.4375 3.20299 2.4375 3.75V14.25C2.4375 14.797 2.6548 15.3216 3.04159 15.7084C3.42839 16.0952 3.95299 16.3125 4.5 16.3125H9.75C9.89918 16.3125 10.0423 16.2532 10.1477 16.1477C10.2532 16.0423 10.3125 15.8992 10.3125 15.75C10.3125 15.6008 10.2532 15.4577 10.1477 15.3523C10.0423 15.2468 9.89918 15.1875 9.75 15.1875H4.5C3.9825 15.1875 3.5625 14.7675 3.5625 14.25V3.75C3.5625 3.2325 3.9825 2.8125 4.5 2.8125H12C12.5175 2.8125 12.9375 3.2325 12.9375 3.75V7.875C12.9375 8.02418 12.9968 8.16726 13.1023 8.27275C13.2077 8.37824 13.3508 8.4375 13.5 8.4375C13.6492 8.4375 13.7923 8.37824 13.8977 8.27275C14.0032 8.16726 14.0625 8.02418 14.0625 7.875V3.75C14.0625 3.20299 13.8452 2.67839 13.4584 2.29159C13.0716 1.9048 12.547 1.6875 12 1.6875H4.5Z" fill="#1A1719"/>
<path id="Vector_2" d="M5.25 7.6875C5.10082 7.6875 4.95774 7.74676 4.85225 7.85225C4.74676 7.95774 4.6875 8.10082 4.6875 8.25C4.6875 8.39918 4.74676 8.54226 4.85225 8.64775C4.95774 8.75324 5.10082 8.8125 5.25 8.8125H5.625C5.77418 8.8125 5.91726 8.75324 6.02275 8.64775C6.12824 8.54226 6.1875 8.39918 6.1875 8.25C6.1875 8.10082 6.12824 7.95774 6.02275 7.85225C5.91726 7.74676 5.77418 7.6875 5.625 7.6875H5.25ZM7.5 7.6875C7.35082 7.6875 7.20774 7.74676 7.10225 7.85225C6.99676 7.95774 6.9375 8.10082 6.9375 8.25C6.9375 8.39918 6.99676 8.54226 7.10225 8.64775C7.20774 8.75324 7.35082 8.8125 7.5 8.8125H11.25C11.3992 8.8125 11.5423 8.75324 11.6477 8.64775C11.7532 8.54226 11.8125 8.39918 11.8125 8.25C11.8125 8.10082 11.7532 7.95774 11.6477 7.85225C11.5423 7.74676 11.3992 7.6875 11.25 7.6875H7.5ZM5.25 9.9375C5.10082 9.9375 4.95774 9.99676 4.85225 10.1023C4.74676 10.2077 4.6875 10.3508 4.6875 10.5C4.6875 10.6492 4.74676 10.7923 4.85225 10.8977C4.95774 11.0032 5.10082 11.0625 5.25 11.0625H5.625C5.77418 11.0625 5.91726 11.0032 6.02275 10.8977C6.12824 10.7923 6.1875 10.6492 6.1875 10.5C6.1875 10.3508 6.12824 10.2077 6.02275 10.1023C5.91726 9.99676 5.77418 9.9375 5.625 9.9375H5.25ZM7.5 9.9375C7.35082 9.9375 7.20774 9.99676 7.10225 10.1023C6.99676 10.2077 6.9375 10.3508 6.9375 10.5C6.9375 10.6492 6.99676 10.7923 7.10225 10.8977C7.20774 11.0032 7.35082 11.0625 7.5 11.0625H10.125C10.2742 11.0625 10.4173 11.0032 10.5227 10.8977C10.6282 10.7923 10.6875 10.6492 10.6875 10.5C10.6875 10.3508 10.6282 10.2077 10.5227 10.1023C10.4173 9.99676 10.2742 9.9375 10.125 9.9375H7.5ZM5.25 12.1875C5.10082 12.1875 4.95774 12.2468 4.85225 12.3523C4.74676 12.4577 4.6875 12.6008 4.6875 12.75C4.6875 12.8992 4.74676 13.0423 4.85225 13.1477C4.95774 13.2532 5.10082 13.3125 5.25 13.3125H5.625C5.77418 13.3125 5.91726 13.2532 6.02275 13.1477C6.12824 13.0423 6.1875 12.8992 6.1875 12.75C6.1875 12.6008 6.12824 12.4577 6.02275 12.3523C5.91726 12.2468 5.77418 12.1875 5.625 12.1875H5.25ZM7.5 12.1875C7.35082 12.1875 7.20774 12.2468 7.10225 12.3523C6.99676 12.4577 6.9375 12.6008 6.9375 12.75C6.9375 12.8992 6.99676 13.0423 7.10225 13.1477C7.20774 13.2532 7.35082 13.3125 7.5 13.3125H9C9.14918 13.3125 9.29226 13.2532 9.39775 13.1477C9.50324 13.0423 9.5625 12.8992 9.5625 12.75C9.5625 12.6008 9.50324 12.4577 9.39775 12.3523C9.29226 12.2468 9.14918 12.1875 9 12.1875H7.5Z" fill="#1A1719"/>
<path id="Vector_3" opacity="0.5" d="M4.557 4.21275C4.5 4.35075 4.5 4.5255 4.5 4.875C4.5 5.2245 4.5 5.39925 4.557 5.53725C4.63328 5.72065 4.7792 5.86631 4.96275 5.94225C5.10075 6 5.2755 6 5.625 6H10.875C11.2245 6 11.3993 6 11.5373 5.943C11.7207 5.86672 11.8663 5.7208 11.9423 5.53725C12 5.39925 12 5.2245 12 4.875C12 4.5255 12 4.35075 11.943 4.21275C11.8667 4.02935 11.7208 3.88369 11.5373 3.80775C11.3993 3.75 11.2245 3.75 10.875 3.75H5.625C5.2755 3.75 5.10075 3.75 4.96275 3.807C4.77935 3.88328 4.63294 4.0292 4.557 4.21275ZM14.0625 10.5C14.0625 10.3508 14.0032 10.2077 13.8977 10.1023C13.7923 9.99676 13.6492 9.9375 13.5 9.9375C13.3508 9.9375 13.2077 9.99676 13.1023 10.1023C12.9968 10.2077 12.9375 10.3508 12.9375 10.5V10.8127H12.8722C12.1545 10.8127 11.4375 11.3378 11.4375 12.1373C11.4375 12.4703 11.5275 12.7763 11.7532 13.017C11.9617 13.2383 12.228 13.3403 12.4343 13.4017L14.2477 13.9275C14.3167 13.9478 14.3625 13.9665 14.3925 13.9815C14.4035 13.9871 14.4141 13.9936 14.424 14.001L14.4255 14.004C14.4348 14.0395 14.4388 14.0761 14.4375 14.1127C14.4375 14.1405 14.4255 14.1825 14.3745 14.2283C14.3047 14.285 14.2169 14.3148 14.127 14.3123H12.9982C12.684 14.3123 12.5625 14.1067 12.5625 14.0002C12.5625 13.8511 12.5032 13.708 12.3977 13.6025C12.2923 13.497 12.1492 13.4377 12 13.4377C11.8508 13.4377 11.7077 13.497 11.6023 13.6025C11.4968 13.708 11.4375 13.8511 11.4375 14.0002C11.4375 14.8403 12.1673 15.408 12.9375 15.4365V15.75C12.9375 15.8992 12.9968 16.0423 13.1023 16.1477C13.2077 16.2532 13.3508 16.3125 13.5 16.3125C13.6492 16.3125 13.7923 16.2532 13.8977 16.1477C14.0032 16.0423 14.0625 15.8992 14.0625 15.75V15.4373H14.1278C14.8455 15.4373 15.5625 14.9122 15.5625 14.1127C15.5625 13.7797 15.4725 13.4737 15.2467 13.233C15.0382 13.0117 14.772 12.9097 14.5658 12.8483L12.7523 12.3225C12.7023 12.3095 12.6538 12.2914 12.6075 12.2685C12.5965 12.2629 12.5859 12.2564 12.576 12.249L12.5745 12.246C12.5652 12.2105 12.5612 12.1739 12.5625 12.1373C12.5625 12.1095 12.5745 12.0675 12.6255 12.0217C12.6953 11.965 12.7831 11.9352 12.873 11.9377H14.0018C14.316 11.9377 14.4375 12.1433 14.4375 12.2498C14.4375 12.3989 14.4968 12.542 14.6023 12.6475C14.7077 12.753 14.8508 12.8123 15 12.8123C15.1492 12.8123 15.2923 12.753 15.3977 12.6475C15.5032 12.542 15.5625 12.3989 15.5625 12.2498C15.5625 11.4097 14.8328 10.842 14.0625 10.8135V10.5Z" fill="#1A1719"/>
</g>
</svg>
