<svg width="21" height="20" viewBox="0 0 21 20" fill="none" xmlns="http://www.w3.org/2000/svg">
<path d="M11.9922 8.22266C11.541 8.22266 11.1914 8.57227 11.1914 9.00391C11.1914 9.43555 11.541 9.78516 11.9922 9.78516C12.4043 9.78516 12.7539 9.43555 12.7539 9.00391C12.7539 8.57227 12.4043 8.22266 11.9922 8.22266ZM6.52344 8.22266C6.07227 8.22266 5.72266 8.57227 5.72266 9.00391C5.72266 9.43555 6.07227 9.78516 6.52344 9.78516C6.93555 9.78516 7.28516 9.43555 7.28516 9.00391C7.28516 8.57227 6.93555 8.22266 6.52344 8.22266Z" fill="#050734"/>
<path d="M18.2615 6.73915C17.322 5.45009 16.0095 4.58876 14.5701 4.20009V4.20205C14.2361 3.83095 13.8591 3.48915 13.4372 3.18447C10.24 0.860249 5.75169 1.56923 3.41771 4.7665C1.53685 7.36415 1.61693 10.8583 3.5349 13.3407L3.55052 15.9306C3.55052 15.9931 3.56029 16.0556 3.57982 16.1142C3.68333 16.4442 4.0349 16.6259 4.36302 16.5224L6.83568 15.7431C7.48997 15.9755 8.16575 16.1083 8.83763 16.1454L8.82786 16.1532C10.5681 17.4208 12.8493 17.8017 14.9411 17.1102L17.4236 17.9188C17.4861 17.9384 17.5505 17.9501 17.6169 17.9501C17.9626 17.9501 18.2419 17.6708 18.2419 17.3251V14.7079C19.9626 12.372 20.0075 9.14345 18.2615 6.73915ZM7.10911 14.3563L6.87474 14.2587L4.94115 14.8642L4.92161 12.8329L4.76536 12.6571C3.11302 10.6415 3.00365 7.7372 4.55052 5.60634C6.43333 3.02431 10.0427 2.454 12.6169 4.31728C15.199 6.19423 15.7712 9.79775 13.906 12.3642C12.3415 14.5106 9.54075 15.3036 7.10911 14.3563ZM16.9724 14.0243L16.8161 14.2196L16.8357 16.2509L14.9216 15.6063L14.6872 15.704C13.5935 16.1102 12.4275 16.1435 11.3474 15.8407L11.3435 15.8388C12.7868 15.3954 14.0954 14.497 15.0388 13.204C16.531 11.1474 16.7732 8.56337 15.906 6.36025L15.9177 6.36806C16.3669 6.69033 16.779 7.09267 17.1286 7.579C18.5466 9.52431 18.4665 12.1727 16.9724 14.0243Z" fill="#050734"/>
<path d="M9.25781 8.22266C8.80664 8.22266 8.45703 8.57227 8.45703 9.00391C8.45703 9.43555 8.80664 9.78516 9.25781 9.78516C9.66992 9.78516 10.0195 9.43555 10.0195 9.00391C10.0195 8.57227 9.66992 8.22266 9.25781 8.22266Z" fill="#050734"/>
</svg>
