<svg width="52" height="52" viewBox="0 0 52 52" fill="none" xmlns="http://www.w3.org/2000/svg">
<path d="M25.1079 0.560274C25.4306 0.376213 25.704 0.284973 25.9823 0.284973H26.0013C26.2855 0.289192 26.5687 0.387815 26.9093 0.577678L39.8558 7.85837C41.0361 8.58407 41.8201 9.86564 41.8201 11.3244V17.7312L25.8941 8.76391C25.7631 8.69324 25.6239 8.65579 25.4929 8.65579C25.3927 8.65579 25.2974 8.67795 25.2146 8.72172C25.1328 8.76497 25.063 8.83194 25.011 8.92213C24.9509 9.02708 24.9146 9.16684 24.9146 9.34194L24.9141 19.4964L24.9146 19.5903L24.8188 19.6024L24.8112 19.6035L24.7067 19.6167L24.6017 19.6304L24.5882 19.6325L24.4858 19.6478L24.3851 19.6631L24.3581 19.6678L24.2536 19.6857L24.1512 19.7037L24.1453 19.7053L24.0386 19.7253L23.9341 19.7469L23.9168 19.7501L23.815 19.7722L23.7121 19.7965L23.704 19.7981C23.2384 19.9067 22.7852 20.0491 22.3472 20.2216C22.2579 20.2564 22.1729 20.2917 22.0927 20.326C22.0088 20.3613 21.9254 20.3988 21.8431 20.4368L21.8404 20.4373L21.7462 20.4816L21.652 20.5275L21.6379 20.5333L21.5546 20.5749L21.4701 20.6182L21.4327 20.6372L21.351 20.6799L21.2708 20.7231L21.2432 20.7379C21.208 20.7569 21.1685 20.779 21.1268 20.8028L21.103 20.816L21.0803 20.8291L21.0543 20.8439L20.9709 20.8919L20.8864 20.9425L20.8745 20.9494L20.789 21.0021L20.7029 21.0554L20.6931 21.0628C20.4354 21.2252 20.1864 21.4003 19.9454 21.5865C19.8935 21.6271 19.8469 21.6635 19.8063 21.6962C19.7651 21.7289 19.718 21.7674 19.6693 21.8085L19.6677 21.8096L19.6596 21.8164L19.5821 21.8813L19.5074 21.9467L19.496 21.9562L19.4284 22.0163L19.3612 22.0764L19.3277 22.1075L19.2622 22.1677L19.1977 22.2283L19.1739 22.251L19.1111 22.3116L19.0488 22.3734L19.0115 22.4103L18.9573 22.4651L18.9037 22.5205L18.8512 22.5753L18.8041 22.6254L18.757 22.6761L18.6958 22.7431L18.6509 22.7926L18.6076 22.8412L18.5615 22.8944L18.5107 22.9524L18.4614 23.0104L18.4256 23.0547L18.3737 23.117L18.3239 23.1782L18.2946 23.2156C18.1788 23.3612 18.0661 23.5115 17.9584 23.666L17.8951 23.7572L17.8333 23.8474L17.8155 23.8748L17.7407 23.9888L17.6904 24.0684L17.6357 24.1565L17.6265 24.1712L17.626 24.1728L17.5767 24.2546C17.5561 24.288 17.542 24.3125 17.5289 24.3351C17.5255 24.3411 17.5221 24.3469 17.5188 24.3527L17.5144 24.3606L17.4652 24.4465L17.4354 24.4998L17.4051 24.5536L17.3574 24.6427L17.3044 24.7435L17.254 24.8421L17.2015 24.947L17.1571 25.0404L17.1089 25.1438L17.0742 25.2208L17.0152 25.3537L16.9752 25.4496L16.9335 25.5504C16.9201 25.5837 16.9101 25.6092 16.9015 25.6312C16.8969 25.643 16.8927 25.6538 16.8885 25.6643L16.8831 25.6791L16.8826 25.6812L16.8517 25.7608C16.8284 25.8236 16.809 25.8774 16.7895 25.9322L16.7759 25.9707L16.7434 26.0662L16.7115 26.1648L16.6801 26.2639L16.659 26.3341L16.6379 26.4027L16.6173 26.4754L16.6075 26.5092L16.5788 26.6147L16.5545 26.7107L16.5215 26.8399L16.5009 26.93C16.4928 26.9643 16.4846 26.9997 16.4727 27.0566L16.4511 27.1579L16.4267 27.2839L16.4094 27.3826L16.3877 27.507L16.3715 27.612L16.3531 27.7375L16.3395 27.8393L16.3249 27.9632L16.313 28.0719L16.3016 28.1974L16.293 28.3029L16.2854 28.4215L16.2843 28.4352L16.2827 28.4532L16.2778 28.5344L16.2729 28.6673L16.2719 28.69L16.2691 28.7691L16.267 28.8862L16.2659 29.0038L16.267 29.1251L16.2691 29.2474L16.2697 29.2511L16.2729 29.3693L16.2789 29.4911V29.4927L16.2794 29.4964L16.2859 29.6119L16.2946 29.7326L16.3049 29.8539L16.3163 29.9678L16.3168 29.9726C16.3325 30.1292 16.3536 30.2869 16.3785 30.4462L16.3969 30.5612L16.418 30.6756V30.6782L16.4191 30.6814L16.4197 30.6856L16.4402 30.7969L16.4635 30.9114L16.4641 30.914C16.4873 31.0232 16.5117 31.1318 16.5388 31.2394L16.555 31.3027L16.5718 31.3665V31.3681L16.5729 31.3718L16.6038 31.4852L16.6352 31.5964L16.6357 31.598C16.6483 31.6418 16.6622 31.6856 16.6753 31.7288C16.678 31.7377 16.6807 31.7464 16.6833 31.7552L16.6925 31.7858L16.7023 31.8169L16.7034 31.819L16.7039 31.8211L16.7402 31.9324L16.7765 32.0395L16.7781 32.0426L16.816 32.1507L16.855 32.2562L16.8561 32.2573L16.8571 32.261L16.8967 32.3649L16.9373 32.4677L16.9438 32.4825L16.9849 32.5827L17.0288 32.6845L17.0309 32.6897L17.071 32.7789L10.1743 36.6573V11.3244C10.1743 9.81976 11.007 8.50496 12.248 7.79245L12.3194 7.75289L25.1079 0.560274Z" fill="#FFBA00" fill-opacity="0.5"/>
<path d="M27.089 11.7996L49.6118 24.4661C50.9491 25.2181 51.7017 26.5788 51.7147 27.9817V42.446C51.7179 42.8189 51.6595 43.0989 51.5133 43.3373C51.3676 43.5752 51.1381 43.7645 50.7986 43.957L37.8526 51.2382C36.617 51.8711 35.0864 51.8922 33.7886 51.1618L28.2585 48.0522L28.0923 47.9584L28.2585 47.8655L44.0286 39.0079C44.1569 38.9325 44.2587 38.8339 44.3248 38.7231C44.3746 38.6382 44.4038 38.547 44.4054 38.4557C44.4076 38.365 44.3838 38.2722 44.3296 38.1841C44.2657 38.0797 44.1602 37.98 44.0042 37.8925L34.9765 32.8153L34.8926 32.7683L34.9299 32.6813L34.9326 32.6739L34.9738 32.5795L35.0133 32.4841L35.0561 32.3775L35.0924 32.2847L35.1016 32.2599L35.1384 32.1623L35.1736 32.0669L35.1752 32.0616L35.2099 31.9614L35.2434 31.8628L35.2494 31.8464L35.2808 31.7489L35.3111 31.6508L35.3133 31.6434C35.4486 31.1961 35.5493 30.7421 35.6154 30.2864C35.6284 30.1936 35.6397 30.105 35.6495 30.0201C35.6598 29.9309 35.6684 29.8423 35.6766 29.7537V29.7511L35.6847 29.6498L35.6912 29.547L35.6917 29.5322L35.6971 29.441L35.7015 29.3482L35.7031 29.3075L35.7058 29.2168L35.708 29.0971C35.7085 29.0581 35.709 29.0138 35.7085 28.9663V28.8851L35.7069 28.7907L35.7047 28.6942L35.7042 28.6805L35.7009 28.5824L35.6961 28.4827L35.695 28.4706C35.6782 28.1726 35.6473 27.8741 35.6024 27.5782C35.5932 27.5139 35.5834 27.4564 35.5748 27.4058C35.5661 27.3551 35.5553 27.2961 35.5434 27.2344V27.2322L35.5412 27.2217L35.5217 27.1247L35.5011 27.0287L35.4984 27.0144L35.4789 26.9269L35.4589 26.8399L35.4481 26.7961L35.428 26.7117L35.4058 26.6263L35.3977 26.5946L35.3517 26.428L35.3371 26.3784L35.3154 26.3046L35.271 26.1611L35.2499 26.0962L35.2283 26.0303L35.1996 25.9459L35.1557 25.822L35.1313 25.7566L35.1054 25.6849L35.0783 25.6142L35.0577 25.5615L35.0279 25.4871L34.9982 25.4143L34.9797 25.3711C34.9083 25.2007 34.8309 25.0309 34.7475 24.8621L34.6489 24.6659L34.6479 24.6654L34.6473 24.6644L34.6332 24.6375L34.6013 24.5768L34.5688 24.5172L34.5233 24.4344L34.473 24.3448L34.4638 24.3295L34.4632 24.3284L34.415 24.2456C34.3901 24.2029 34.3733 24.1755 34.3566 24.148L34.3517 24.1401L34.3003 24.0552L34.2683 24.0041L34.2342 23.9513L34.1795 23.8664L34.1167 23.7709L34.0539 23.6797L33.9862 23.5832L33.9267 23.4988L33.8585 23.4065L33.807 23.339L33.794 23.3221L33.7182 23.223L33.6533 23.1407L33.5845 23.0553C33.5488 23.0126 33.5271 22.9862 33.5054 22.9609L33.4952 22.9482L33.4941 22.9477L33.4383 22.8812C33.3945 22.8301 33.356 22.7868 33.317 22.7431L33.2894 22.7125L33.2212 22.637L33.1497 22.5606L33.0766 22.4846L32.9743 22.3797L32.9196 22.3259L32.8942 22.3011L32.8157 22.2241L32.7426 22.1555L32.644 22.0627L32.5742 22.0005C32.5477 21.9762 32.52 21.952 32.4757 21.9135L32.3966 21.8444L32.2964 21.7616L32.2174 21.6967L32.1178 21.6165L32.0328 21.5506L31.9299 21.472L31.8465 21.4098L31.7436 21.3354L31.6527 21.2711L31.5471 21.1988L31.4572 21.1387L31.3701 21.0823L31.3554 21.0728L31.3441 21.0649L31.3295 21.0554L31.2591 21.0111L31.1437 20.9394L31.0549 20.8856L30.9515 20.8249L30.8481 20.7653L30.7398 20.7057L30.6294 20.6461L30.6261 20.6456L30.5195 20.5886L30.4085 20.5327L30.4069 20.5317L30.4031 20.5306L30.297 20.4784L30.1854 20.4252L30.0728 20.3735L29.9656 20.3255L29.9607 20.3234C29.814 20.2596 29.6635 20.1978 29.5092 20.1393L29.3982 20.0976L29.2856 20.0576L29.2834 20.057L29.2796 20.0554L29.2764 20.0539L29.1665 20.0159L29.0533 19.9784L29.0522 19.9779L29.05 19.9774C28.9418 19.9426 28.8324 19.9094 28.7236 19.8777L28.6597 19.8598L28.5942 19.8424L28.5931 19.8413L28.5898 19.8403L28.4734 19.8097L28.3581 19.7807L28.3565 19.7801C28.3018 19.767 28.2471 19.7538 28.1924 19.7416L28.161 19.7348L28.1285 19.7274L28.1269 19.7269L28.1237 19.7264L28.0073 19.7016L27.8936 19.6784L27.8903 19.6778L27.7755 19.6562L27.6613 19.6362L27.6564 19.6356L27.5449 19.6167L27.4323 19.6003L27.416 19.5977L27.3067 19.5829L27.1946 19.5687L27.1881 19.5676L27.089 19.5571V11.7996Z" fill="#FFBA00" fill-opacity="0.5"/>
<path d="M8.08225 21.2648L8.0725 39.1836C8.07521 39.3296 8.11203 39.4657 8.17754 39.5759C8.22843 39.6608 8.29503 39.7305 8.37462 39.7774C8.45475 39.8249 8.5495 39.8507 8.65508 39.8497C8.77906 39.8475 8.92092 39.808 9.0763 39.721L18.188 34.5968L18.247 34.6717L18.2519 34.677L18.3152 34.7587L18.3802 34.8405L18.3883 34.851L18.4533 34.9296L18.5177 35.0066L18.535 35.0277L18.6032 35.1068L18.6704 35.1838L18.6747 35.1885L18.7462 35.2676L18.8171 35.3457L18.829 35.3584L18.8999 35.4332L18.9725 35.5081L18.9779 35.5139C19.3076 35.852 19.6606 36.1637 20.0331 36.4469C20.1089 36.5044 20.1826 36.5587 20.253 36.6093C20.3266 36.6621 20.4013 36.7143 20.4766 36.7649L20.4782 36.766L20.5648 36.8235L20.6525 36.8804L20.665 36.8889L20.7435 36.939L20.8242 36.9885L20.8599 37.0107L20.9384 37.0582L21.0169 37.104L21.044 37.1204C21.0781 37.1399 21.1176 37.1626 21.1604 37.1858L21.1831 37.199L21.2064 37.2116L21.2324 37.2259L21.3169 37.2728L21.4046 37.3187L21.4165 37.3255L21.5058 37.3714L21.5962 37.4168L21.6076 37.4221C21.881 37.5576 22.1615 37.681 22.4474 37.7902C22.5096 37.8144 22.5648 37.8355 22.6147 37.8529C22.6639 37.8714 22.7213 37.8914 22.7825 37.9125L22.7841 37.9136L22.795 37.9168L22.8908 37.9489L22.9866 37.9806L23.0007 37.9848L23.0879 38.0117L23.175 38.0381L23.2194 38.0518L23.305 38.076L23.3916 38.1003L23.4241 38.1087L23.5091 38.1314L23.5952 38.1535L23.6466 38.1662L23.723 38.1847L23.7977 38.2026L23.8729 38.2189L24.0105 38.2485L24.1003 38.2664L24.1669 38.2791L24.2319 38.2917L24.3023 38.3039L24.3792 38.3176L24.455 38.3302L24.5129 38.3387L24.5941 38.3508L24.6737 38.3624L24.7208 38.3687C24.9081 38.3935 25.0982 38.413 25.2893 38.4267L25.4019 38.4352L25.5135 38.4415L25.5145 38.441H25.5162L25.5465 38.4431L25.6163 38.4463L25.6856 38.4489L25.7815 38.4521L25.8865 38.4542H25.9065L26.004 38.4552C26.0538 38.4552 26.0868 38.4552 26.1204 38.4547L26.1291 38.4542L26.2303 38.4531L26.3554 38.4499L26.4588 38.4457L26.5747 38.4405L26.6873 38.4331L26.8075 38.4246L26.912 38.4162L27.0278 38.4051L27.1139 38.3956L27.1356 38.3935L27.2612 38.3787L27.4777 38.3497C27.524 38.3432 27.5557 38.3376 27.584 38.333C27.5898 38.3321 27.5955 38.3311 27.6012 38.3302L27.6174 38.3271L27.6191 38.3265L27.7051 38.3128C27.7728 38.3018 27.8308 38.2912 27.8887 38.2796L27.9293 38.2722L28.0305 38.2522L28.1345 38.23L28.2385 38.2063L28.3115 38.1894L28.383 38.1725L28.4583 38.1535L28.4929 38.1446L28.6012 38.1161L28.6987 38.0897L28.8302 38.0523L28.9201 38.0249C28.9553 38.0138 28.9905 38.0038 29.0473 37.9853L29.148 37.9521L29.272 37.9099L29.3684 37.8761L29.4897 37.8318L29.5909 37.7928L29.7128 37.7453L29.8097 37.7058L29.9266 37.6567L30.0295 37.6119L30.1459 37.5592L30.245 37.5133L30.3386 37.4679L30.3549 37.4606L30.3668 37.4542L30.383 37.4468L30.4578 37.4104L30.5796 37.3482L30.5996 37.3377L30.6711 37.3008L30.7767 37.2443L30.8817 37.1858L30.9889 37.1246L31.0966 37.0608L31.0988 37.0592L31.2028 36.997L31.3083 36.931L31.31 36.9305L31.3127 36.9279L31.4118 36.8651L31.5152 36.7971L31.6175 36.728L31.7139 36.6615L31.7177 36.6584C31.8481 36.5666 31.9786 36.4706 32.1075 36.3699L32.2006 36.2966L32.2921 36.2217L32.2937 36.2201L32.297 36.218L32.2997 36.2154L32.3885 36.1421L32.4789 36.0651L32.48 36.0645L32.4805 36.063C32.5666 35.9886 32.6505 35.9142 32.7328 35.8378L32.781 35.7924L32.8292 35.746L32.8303 35.7455L32.833 35.7434L32.9185 35.66L33.0014 35.5778L33.003 35.5767C33.0425 35.5366 33.081 35.4976 33.1189 35.458L33.1416 35.4348L33.1638 35.4111L33.1654 35.409L33.1671 35.4074L33.2483 35.3214L33.3251 35.2371L33.3273 35.2344L33.4042 35.1485L33.4789 35.0625L33.4795 35.0614L33.4822 35.0583L33.5542 34.9739L33.6251 34.8874L33.6354 34.8747L33.7036 34.7898L33.7724 34.7023L33.7762 34.6975L33.8352 34.6195L33.9213 34.6675L40.7319 38.4974L40.5667 38.5913L18.2096 51.1644C16.8723 51.9165 15.2859 51.8711 14.032 51.1807L13.9616 51.1407L1.17257 43.9486C0.839592 43.764 0.619773 43.5752 0.481168 43.3326C0.343105 43.091 0.288962 42.8025 0.287338 42.4202L0.286255 27.8583C0.342022 26.5002 1.08919 25.1981 2.38645 24.4682L8.08225 21.2648Z" fill="#FFBA00" fill-opacity="0.5"/>
<path d="M25.9999 36.4098C21.7708 36.4098 18.341 33.051 18.341 28.9098C18.341 24.7685 21.7708 21.4098 25.9999 21.4098C30.2303 21.4098 33.6601 24.7685 33.6601 28.9098C33.6601 33.051 30.2303 36.4098 25.9999 36.4098Z" fill="#FFBA00" fill-opacity="0.5"/>
</svg>
