<svg width="27" height="22" viewBox="0 0 27 22" fill="none" xmlns="http://www.w3.org/2000/svg">
<path d="M2.83333 19.0013L9.5 11.0013M24.1667 19.0013L17.5 11.0013M1.5 5.66797L11.1333 12.0901C11.9887 12.6604 12.4163 12.9456 12.8785 13.0562C13.2871 13.1542 13.7129 13.1542 14.1215 13.0562C14.5837 12.9456 15.0113 12.6604 15.8667 12.0901L25.5 5.66797M5.76667 20.3346H21.2333C22.7268 20.3346 23.4736 20.3346 24.044 20.044C24.5457 19.7884 24.9537 19.3804 25.2093 18.8786C25.5 18.3082 25.5 17.5614 25.5 16.068V5.93464C25.5 4.44117 25.5 3.69442 25.2093 3.124C24.9537 2.62222 24.5457 2.21428 24.044 1.95862C23.4736 1.66797 22.7268 1.66797 21.2333 1.66797H5.76667C4.2732 1.66797 3.52645 1.66797 2.95603 1.95862C2.45425 2.21428 2.04631 2.62222 1.79065 3.124C1.5 3.69442 1.5 4.44116 1.5 5.93464V16.068C1.5 17.5614 1.5 18.3082 1.79065 18.8786C2.04631 19.3804 2.45425 19.7884 2.95603 20.044C3.52645 20.3346 4.27319 20.3346 5.76667 20.3346Z" stroke="#C0F037" stroke-width="2" stroke-linecap="round" stroke-linejoin="round"/>
</svg>
