<svg width="32" height="32" viewBox="0 0 32 32" fill="none" xmlns="http://www.w3.org/2000/svg">
<path d="M18.7333 7.9974C20.0357 8.25149 21.2325 8.88841 22.1708 9.82665C23.1091 10.7649 23.746 11.9617 24 13.2641M18.7333 2.66406C21.4391 2.96465 23.9621 4.17629 25.8884 6.10008C27.8145 8.02385 29.0295 10.5454 29.3333 13.2507M24.6667 27.9974C13.2528 27.9974 4 18.7446 4 7.33073C4 6.81577 4.01884 6.30521 4.05585 5.7997C4.09833 5.21956 4.11957 4.92949 4.2716 4.66544C4.39752 4.44674 4.62067 4.23934 4.84797 4.12973C5.12241 3.9974 5.44251 3.9974 6.08268 3.9974H9.83909C10.3774 3.9974 10.6466 3.9974 10.8774 4.086C11.0812 4.16426 11.2627 4.29138 11.4059 4.4562C11.568 4.64277 11.66 4.89574 11.844 5.40168L13.3988 9.67746C13.6128 10.2661 13.7199 10.5604 13.7017 10.8397C13.6857 11.0859 13.6016 11.3228 13.4589 11.5241C13.2971 11.7524 13.0286 11.9136 12.4915 12.2358L10.6667 13.3307C12.2692 16.8626 15.1335 19.7306 18.6667 21.3307L19.7616 19.5059C20.0839 18.9687 20.2449 18.7002 20.4732 18.5385C20.6745 18.3958 20.9115 18.3117 21.1577 18.2957C21.4369 18.2775 21.7313 18.3846 22.32 18.5986L26.5957 20.1534C27.1016 20.3374 27.3547 20.4294 27.5412 20.5915C27.706 20.7347 27.8332 20.9162 27.9113 21.1201C28 21.3507 28 21.6199 28 22.1583V25.9147C28 26.5549 28 26.875 27.8676 27.1494C27.758 27.3767 27.5507 27.5999 27.332 27.7258C27.0679 27.8778 26.7779 27.899 26.1977 27.9415C25.6921 27.9786 25.1816 27.9974 24.6667 27.9974Z" stroke="#C0F037" stroke-width="2" stroke-linecap="round" stroke-linejoin="round"/>
</svg>
