<svg width="20" height="21" viewBox="0 0 20 21" fill="none" xmlns="http://www.w3.org/2000/svg">
<path d="M15.3333 14.2229C14.6578 14.2229 14.0533 14.494 13.5911 14.9187L7.25333 11.1687C7.29778 10.9608 7.33333 10.753 7.33333 10.5361C7.33333 10.3193 7.29778 10.1114 7.25333 9.90361L13.52 6.18976C14 6.64157 14.6311 6.92169 15.3333 6.92169C16.8089 6.92169 18 5.71084 18 4.21084C18 2.71084 16.8089 1.5 15.3333 1.5C13.8578 1.5 12.6667 2.71084 12.6667 4.21084C12.6667 4.42771 12.7022 4.63554 12.7467 4.84337L6.48 8.55723C6 8.10542 5.36889 7.8253 4.66667 7.8253C3.19111 7.8253 2 9.03614 2 10.5361C2 12.0361 3.19111 13.247 4.66667 13.247C5.36889 13.247 6 12.9669 6.48 12.5151L12.8089 16.2741C12.7644 16.4639 12.7378 16.6627 12.7378 16.8614C12.7378 18.3163 13.9022 19.5 15.3333 19.5C16.7644 19.5 17.9289 18.3163 17.9289 16.8614C17.9289 15.4066 16.7644 14.2229 15.3333 14.2229Z" fill="white"/>
</svg>
