<svg width="42" height="42" viewBox="0 0 42 42" fill="none" xmlns="http://www.w3.org/2000/svg">
<path d="M20.3752 3.19173C20.6011 3.06289 20.7925 2.99902 20.9873 2.99902H21.0005C21.1995 3.00198 21.3977 3.07101 21.6361 3.20392L30.6987 8.3004C31.5249 8.80839 32.0737 9.70549 32.0737 10.7266V15.2114L20.9255 8.93428C20.8338 8.88481 20.7364 8.8586 20.6446 8.8586C20.5745 8.8586 20.5078 8.8741 20.4498 8.90475C20.3926 8.93502 20.3437 8.9819 20.3073 9.04503C20.2653 9.1185 20.2399 9.21633 20.2399 9.3389L20.2395 16.447L20.2399 16.5127L20.1728 16.5212L20.1675 16.522L20.0943 16.5312L20.0208 16.5408L20.0113 16.5423L19.9397 16.553L19.8692 16.5637L19.8503 16.567L19.7771 16.5796L19.7055 16.5921L19.7013 16.5932L19.6267 16.6073L19.5535 16.6224L19.5414 16.6246L19.4701 16.6401L19.3981 16.6571L19.3924 16.6582C19.0665 16.7342 18.7493 16.8339 18.4427 16.9546C18.3801 16.979 18.3206 17.0037 18.2645 17.0277C18.2058 17.0525 18.1474 17.0787 18.0898 17.1053L18.0879 17.1056L18.022 17.1367L17.956 17.1688L17.9462 17.1728L17.8878 17.202L17.8287 17.2323L17.8025 17.2456L17.7453 17.2755L17.6892 17.3057L17.6699 17.3161C17.6453 17.3294 17.6176 17.3449 17.5884 17.3615L17.5717 17.3707L17.5558 17.3799L17.5376 17.3903L17.4792 17.4239L17.4201 17.4593L17.4118 17.4641L17.3519 17.501L17.2916 17.5383L17.2848 17.5435C17.1044 17.6572 16.9301 17.7798 16.7614 17.9101C16.725 17.9385 16.6924 17.964 16.664 17.9869C16.6352 18.0098 16.6022 18.0367 16.5681 18.0655L16.567 18.0662L16.5613 18.071L16.5071 18.1164L16.4548 18.1622L16.4469 18.1689L16.3995 18.211L16.3525 18.253L16.329 18.2748L16.2831 18.3169L16.238 18.3594L16.2214 18.3752L16.1774 18.4177L16.1338 18.4609L16.1077 18.4867L16.0698 18.5251L16.0322 18.5639L15.9955 18.6023L15.9625 18.6374L15.9295 18.6728L15.8867 18.7197L15.8552 18.7544L15.8249 18.7883L15.7927 18.8256L15.7571 18.8662L15.7226 18.9069L15.6976 18.9379L15.6612 18.9814L15.6263 19.0243L15.6059 19.0505C15.5248 19.1524 15.4459 19.2576 15.3705 19.3657L15.3262 19.4296L15.283 19.4927L15.2704 19.5119L15.2181 19.5917L15.1829 19.6474L15.1446 19.7091L15.1382 19.7194L15.1378 19.7205L15.1033 19.7777C15.0889 19.8012 15.079 19.8183 15.0699 19.8341C15.0675 19.8383 15.0651 19.8424 15.0628 19.8464L15.0597 19.8519L15.0252 19.9121L15.0044 19.9494L14.9832 19.9871L14.9498 20.0495L14.9127 20.12L14.8774 20.189L14.8407 20.2625L14.8096 20.3278L14.7759 20.4002L14.7516 20.4541L14.7103 20.5471L14.6822 20.6143L14.6531 20.6848C14.6437 20.7081 14.6367 20.726 14.6307 20.7414C14.6275 20.7497 14.6245 20.7572 14.6216 20.7646L14.6178 20.7749L14.6174 20.7764L14.5958 20.8321C14.5795 20.876 14.5659 20.9137 14.5522 20.9521L14.5428 20.979L14.52 21.0459L14.4977 21.1149L14.4757 21.1843L14.4609 21.2334L14.4461 21.2814L14.4317 21.3323L14.4249 21.356L14.4048 21.4298L14.3878 21.497L14.3646 21.5874L14.3502 21.6506C14.3446 21.6746 14.3389 21.6993 14.3305 21.7392L14.3154 21.8101L14.2983 21.8983L14.2862 21.9673L14.271 22.0545L14.2597 22.1279L14.2468 22.2158L14.2373 22.287L14.2271 22.3738L14.2187 22.4498L14.2108 22.5377L14.2047 22.6115L14.1994 22.6946L14.1986 22.7042L14.1975 22.7168L14.1941 22.7736L14.1907 22.8666L14.1899 22.8825L14.188 22.9379L14.1865 23.0199L14.1858 23.1022L14.1865 23.1871L14.188 23.2727L14.1884 23.2753L14.1907 23.358L14.1949 23.4433V23.4444L14.1952 23.447L14.1998 23.5278L14.2058 23.6124L14.213 23.6973L14.221 23.777L14.2214 23.7804C14.2324 23.89 14.2472 24.0004 14.2646 24.1119L14.2775 24.1924L14.2923 24.2725V24.2743L14.293 24.2765L14.2934 24.2795L14.3078 24.3574L14.3241 24.4375L14.3245 24.4393C14.3408 24.5158 14.3578 24.5918 14.3768 24.6671L14.3881 24.7114L14.3999 24.7561V24.7572L14.4006 24.7598L14.4222 24.8392L14.4442 24.9171L14.4446 24.9182C14.4534 24.9488 14.4631 24.9795 14.4724 25.0097C14.4742 25.0159 14.4761 25.0221 14.478 25.0282L14.4844 25.0496L14.4912 25.0714L14.492 25.0728L14.4924 25.0743L14.5178 25.1522L14.5431 25.2272L14.5443 25.2294L14.5708 25.3051L14.5981 25.3789L14.5989 25.3796L14.5996 25.3822L14.6273 25.4549L14.6557 25.5269L14.6603 25.5373L14.6891 25.6074L14.7198 25.6787L14.7213 25.6824L14.7493 25.7447L9.92165 28.4597V10.7266C9.92165 9.67337 10.5045 8.75301 11.3732 8.25426L11.4232 8.22657L20.3752 3.19173Z" fill="#FF6700"/>
<path d="M21.7619 11.0593L37.5279 19.9258C38.464 20.4522 38.9908 21.4047 38.9999 22.3867V32.5118C39.0022 32.7728 38.9613 32.9688 38.8589 33.1357C38.757 33.3022 38.5963 33.4347 38.3586 33.5695L29.2964 38.6663C28.4315 39.1093 27.3601 39.1241 26.4517 38.6128L22.5806 36.4361L22.4642 36.3704L22.5806 36.3054L33.6196 30.1051C33.7095 30.0523 33.7807 29.9833 33.827 29.9057C33.8618 29.8463 33.8823 29.7824 33.8834 29.7186C33.8849 29.6551 33.8683 29.5901 33.8304 29.5284C33.7856 29.4553 33.7117 29.3856 33.6026 29.3243L27.2832 25.7702L27.2244 25.7374L27.2506 25.6765L27.2525 25.6713L27.2813 25.6052L27.3089 25.5384L27.3389 25.4638L27.3643 25.3988L27.3707 25.3815L27.3965 25.3132L27.4211 25.2464L27.4223 25.2427L27.4465 25.1725L27.47 25.1035L27.4742 25.092L27.4962 25.0237L27.5174 24.9551L27.5189 24.9499C27.6137 24.6369 27.6842 24.319 27.7304 24C27.7395 23.935 27.7474 23.873 27.7543 23.8136C27.7615 23.7512 27.7675 23.6892 27.7732 23.6272V23.6253L27.7789 23.5544L27.7835 23.4824L27.7838 23.4721L27.7876 23.4082L27.7907 23.3433L27.7918 23.3148L27.7937 23.2513L27.7952 23.1675C27.7956 23.1402 27.796 23.1092 27.7956 23.076V23.0191L27.7944 22.953L27.7929 22.8855L27.7925 22.8759L27.7903 22.8072L27.7869 22.7374L27.7861 22.7289C27.7744 22.5204 27.7528 22.3114 27.7213 22.1043C27.7149 22.0593 27.708 22.019 27.702 21.9836C27.6959 21.9481 27.6883 21.9068 27.68 21.8636V21.8621L27.6785 21.8547L27.6648 21.7868L27.6504 21.7196L27.6485 21.7096L27.6349 21.6484L27.6209 21.5875L27.6133 21.5568L27.5993 21.4977L27.5837 21.4379L27.578 21.4158L27.5458 21.2991L27.5356 21.2644L27.5204 21.2127L27.4894 21.1123L27.4746 21.0669L27.4594 21.0208L27.4393 20.9617L27.4086 20.8749L27.3916 20.8292L27.3734 20.779L27.3544 20.7295L27.34 20.6926L27.3192 20.6405L27.2983 20.5896L27.2854 20.5593C27.2354 20.44 27.1812 20.3212 27.1229 20.203L27.0539 20.0657L27.0531 20.0653L27.0527 20.0646L27.0429 20.0458L27.0205 20.0033L26.9978 19.9616L26.966 19.9036L26.9307 19.8409L26.9243 19.8302L26.9239 19.8294L26.8902 19.7715C26.8727 19.7416 26.861 19.7224 26.8492 19.7032L26.8458 19.6976L26.8098 19.6382L26.7874 19.6024L26.7636 19.5655L26.7253 19.506L26.6813 19.4392L26.6374 19.3753L26.59 19.3078L26.5483 19.2487L26.5005 19.1841L26.4645 19.1369L26.4554 19.125L26.4024 19.0556L26.3569 18.998L26.3088 18.9382C26.2838 18.9083 26.2686 18.8899 26.2534 18.8722L26.2462 18.8633L26.2455 18.8629L26.2064 18.8164C26.1757 18.7806 26.1488 18.7503 26.1215 18.7197L26.1022 18.6983L26.0545 18.6455L26.0044 18.5919L25.9533 18.5388L25.8816 18.4653L25.8434 18.4277L25.8255 18.4103L25.7706 18.3564L25.7194 18.3084L25.6505 18.2434L25.6016 18.1999C25.583 18.1829 25.5637 18.1659 25.5326 18.139L25.4772 18.0906L25.4071 18.0326L25.3518 17.9872L25.2821 17.9311L25.2226 17.885L25.1506 17.83L25.0922 17.7864L25.0202 17.7344L24.9565 17.6893L24.8826 17.6387L24.8197 17.5966L24.7587 17.5571L24.7484 17.5505L24.7405 17.545L24.7302 17.5383L24.681 17.5073L24.6002 17.4571L24.5381 17.4194L24.4657 17.377L24.3933 17.3353L24.3175 17.2936L24.2402 17.2518L24.2379 17.2515L24.1633 17.2116L24.0856 17.1725L24.0844 17.1717L24.0818 17.171L24.0075 17.1344L23.9294 17.0972L23.8506 17.061L23.7755 17.0274L23.7721 17.0259C23.6694 16.9812 23.5641 16.938 23.4561 16.8971L23.3784 16.8679L23.2995 16.8398L23.298 16.8395L23.2954 16.8384L23.2931 16.8373L23.2161 16.8107L23.1369 16.7845L23.1362 16.7841L23.1347 16.7837C23.0589 16.7594 22.9823 16.7361 22.9061 16.7139L22.8614 16.7014L22.8155 16.6892L22.8148 16.6885L22.8125 16.6877L22.731 16.6663L22.6503 16.646L22.6492 16.6456C22.6109 16.6364 22.5726 16.6272 22.5343 16.6187L22.5123 16.6139L22.4896 16.6087L22.4885 16.6084L22.4862 16.608L22.4047 16.5906L22.3251 16.5744L22.3228 16.574L22.2425 16.5589L22.1625 16.5449L22.1591 16.5445L22.081 16.5312L22.0022 16.5198L21.9908 16.5179L21.9143 16.5076L21.8358 16.4976L21.8313 16.4969L21.7619 16.4895V11.0593Z" fill="#FF6700"/>
<path d="M8.4572 17.6849L8.45037 30.228C8.45227 30.3303 8.47804 30.4255 8.5239 30.5027C8.55953 30.5621 8.60614 30.6109 8.66185 30.6437C8.71795 30.677 8.78427 30.695 8.85818 30.6943C8.94497 30.6928 9.04426 30.6651 9.15304 30.6042L15.5312 27.0173L15.5725 27.0697L15.5759 27.0734L15.6203 27.1306L15.6657 27.1879L15.6714 27.1952L15.7169 27.2503L15.762 27.3042L15.7741 27.3189L15.8219 27.3743L15.8689 27.4282L15.8719 27.4315L15.9219 27.4869L15.9716 27.5415L15.9799 27.5504L16.0296 27.6028L16.0804 27.6552L16.0842 27.6593C16.315 27.8959 16.5621 28.1141 16.8228 28.3124C16.8759 28.3526 16.9274 28.3906 16.9767 28.4261C17.0282 28.463 17.0805 28.4995 17.1332 28.535L17.1344 28.5357L17.195 28.576L17.2564 28.6158L17.2651 28.6217L17.3201 28.6568L17.3765 28.6915L17.4016 28.707L17.4565 28.7402L17.5115 28.7724L17.5304 28.7838C17.5543 28.7975 17.582 28.8134 17.6119 28.8296L17.6278 28.8388L17.6441 28.8477L17.6623 28.8577L17.7214 28.8905L17.7828 28.9226L17.7912 28.9274L17.8537 28.9595L17.917 28.9913L17.925 28.995C18.1163 29.0899 18.3127 29.1763 18.5128 29.2527C18.5564 29.2697 18.595 29.2844 18.6299 29.2966C18.6644 29.3095 18.7046 29.3236 18.7474 29.3383L18.7485 29.3391L18.7561 29.3413L18.8232 29.3638L18.8903 29.3859L18.9001 29.3889L18.9611 29.4077L19.0222 29.4262L19.0532 29.4358L19.1131 29.4528L19.1737 29.4697L19.1965 29.4757L19.256 29.4915L19.3163 29.507L19.3523 29.5159L19.4057 29.5288L19.458 29.5414L19.5107 29.5528L19.6069 29.5735L19.6699 29.586L19.7165 29.5949L19.762 29.6038L19.8112 29.6122L19.865 29.6218L19.9181 29.6307L19.9587 29.6366L20.0155 29.6451L20.0712 29.6532L20.1042 29.6577C20.2353 29.675 20.3684 29.6887 20.5021 29.6983L20.581 29.7042L20.659 29.7086L20.6598 29.7082H20.6609L20.6822 29.7097L20.7311 29.7119L20.7796 29.7138L20.8466 29.716L20.9202 29.7175H20.9342L21.0024 29.7182C21.0373 29.7182 21.0604 29.7182 21.0839 29.7178L21.09 29.7175L21.1608 29.7167L21.2484 29.7145L21.3208 29.7116L21.4019 29.7079L21.4807 29.7027L21.5648 29.6968L21.638 29.6909L21.7191 29.6831L21.7794 29.6765L21.7945 29.675L21.8825 29.6647L22.034 29.6444C22.0664 29.6398 22.0886 29.6358 22.1084 29.6326C22.1125 29.632 22.1165 29.6313 22.1205 29.6307L22.1318 29.6285L22.133 29.6281L22.1932 29.6185C22.2406 29.6108 22.2812 29.6034 22.3217 29.5953L22.3501 29.5901L22.421 29.5761L22.4938 29.5606L22.5665 29.5439L22.6177 29.5321L22.6677 29.5203L22.7204 29.507L22.7447 29.5008L22.8205 29.4808L22.8887 29.4624L22.9808 29.4362L23.0437 29.417C23.0683 29.4092 23.093 29.4022 23.1328 29.3893L23.2033 29.366L23.29 29.3365L23.3575 29.3128L23.4424 29.2818L23.5133 29.2545L23.5986 29.2213L23.6664 29.1936L23.7483 29.1593L23.8203 29.1279L23.9018 29.091L23.9711 29.0589L24.0367 29.0271L24.048 29.0219L24.0564 29.0175L24.0678 29.0123L24.1201 28.9869L24.2053 28.9433L24.2194 28.9359L24.2694 28.9101L24.3433 28.8706L24.4168 28.8296L24.4919 28.7868L24.5673 28.7421L24.5688 28.741L24.6416 28.6974L24.7155 28.6513L24.7166 28.6509L24.7185 28.6491L24.7879 28.6051L24.8602 28.5575L24.9319 28.5091L24.9993 28.4626L25.002 28.4604C25.0933 28.3962 25.1847 28.329 25.2749 28.2585L25.3401 28.2072L25.4041 28.1547L25.4052 28.1536L25.4075 28.1522L25.4094 28.1503L25.4716 28.099L25.5349 28.0451L25.5356 28.0447L25.536 28.0436C25.5963 27.9916 25.655 27.9395 25.7126 27.886L25.7463 27.8542L25.7801 27.8217L25.7808 27.8214L25.7827 27.8199L25.8426 27.7616L25.9006 27.704L25.9017 27.7032C25.9294 27.6752 25.9563 27.6479 25.9828 27.6202L25.9988 27.6039L26.0143 27.5873L26.0154 27.5858L26.0166 27.5847L26.0734 27.5246L26.1272 27.4655L26.1287 27.4636L26.1826 27.4035L26.2349 27.3433L26.2352 27.3425L26.2371 27.3403L26.2875 27.2813L26.3372 27.2207L26.3444 27.2119L26.3922 27.1524L26.4403 27.0911L26.4429 27.0878L26.4842 27.0332L26.5445 27.0668L31.3119 29.7477L31.1963 29.8134L15.5464 38.6146C14.6102 39.1411 13.4998 39.1093 12.622 38.6261L12.5727 38.598L3.62042 33.5635C3.38734 33.4343 3.23346 33.3022 3.13644 33.1323C3.03979 32.9633 3.00189 32.7613 3.00076 32.4937L3 22.3003C3.03904 21.3497 3.56205 20.4382 4.47013 19.9273L8.4572 17.6849Z" fill="#FF6700"/>
<path d="M20.9996 28.2864C18.0392 28.2864 15.6383 25.9353 15.6383 23.0364C15.6383 20.1375 18.0392 17.7864 20.9996 17.7864C23.9608 17.7864 26.3617 20.1375 26.3617 23.0364C26.3617 25.9353 23.9608 28.2864 20.9996 28.2864Z" fill="#FF6700"/>
</svg>
