<svg width="26" height="26" viewBox="0 0 26 26" fill="none" xmlns="http://www.w3.org/2000/svg">
<path d="M12.6135 1.97477C12.7533 1.89501 12.8718 1.85547 12.9924 1.85547H13.0006C13.1238 1.8573 13.2465 1.90003 13.3941 1.98231L19.0042 5.13728C19.5157 5.45174 19.8554 6.00709 19.8554 6.63923V9.41551L12.9541 5.52968C12.8974 5.49905 12.8371 5.48283 12.7803 5.48283C12.7369 5.48283 12.6956 5.49242 12.6597 5.51139C12.6243 5.53013 12.594 5.55916 12.5715 5.59824C12.5454 5.64372 12.5297 5.70428 12.5297 5.78015L12.5295 10.1804L12.5297 10.2211L12.4882 10.2264L12.4849 10.2268L12.4396 10.2325L12.3941 10.2385L12.3882 10.2394L12.3439 10.246L12.3003 10.2526L12.2885 10.2547L12.2433 10.2625L12.1989 10.2702L12.1963 10.2709L12.1501 10.2796L12.1048 10.289L12.0973 10.2904L12.0532 10.3L12.0086 10.3105L12.0051 10.3111C11.8033 10.3582 11.607 10.4199 11.4172 10.4947C11.3785 10.5097 11.3416 10.5251 11.3069 10.5399C11.2705 10.5552 11.2344 10.5715 11.1987 10.5879L11.1976 10.5881L11.1567 10.6073L11.1159 10.6272L11.1098 10.6297L11.0737 10.6478L11.0371 10.6665L11.0209 10.6748L10.9855 10.6933L10.9507 10.712L10.9388 10.7184C10.9235 10.7266 10.9064 10.7362 10.8883 10.7465L10.878 10.7522L10.8682 10.7579L10.8569 10.7643L10.8208 10.7851L10.7842 10.8071L10.779 10.81L10.7419 10.8329L10.7046 10.856L10.7004 10.8592C10.5887 10.9296 10.4808 11.0054 10.3764 11.0861C10.3539 11.1037 10.3337 11.1195 10.3161 11.1337C10.2983 11.1478 10.2779 11.1645 10.2567 11.1823L10.256 11.1828L10.2525 11.1858L10.219 11.2139L10.1866 11.2422L10.1817 11.2463L10.1523 11.2724L10.1232 11.2984L10.1087 11.3119L10.0803 11.338L10.0524 11.3643L10.0421 11.3741L10.0149 11.4004L9.98787 11.4271L9.97168 11.4431L9.94822 11.4669L9.925 11.4909L9.90224 11.5146L9.88183 11.5363L9.86141 11.5583L9.8349 11.5873L9.81543 11.6088L9.79666 11.6298L9.77672 11.6529L9.75466 11.678L9.73331 11.7032L9.71783 11.7224L9.6953 11.7493L9.67372 11.7759L9.66105 11.7921C9.61084 11.8552 9.56204 11.9203 9.51535 11.9872L9.4879 12.0268L9.46116 12.0659L9.45341 12.0777L9.42104 12.1271L9.39922 12.1616L9.37552 12.1998L9.37153 12.2062L9.3713 12.2069L9.34995 12.2423C9.34102 12.2568 9.3349 12.2674 9.32924 12.2772C9.32775 12.2798 9.3263 12.2823 9.32484 12.2848L9.32297 12.2882L9.30162 12.3255L9.28871 12.3486L9.27557 12.3719L9.25493 12.4105L9.23193 12.4542L9.21011 12.4969L9.18736 12.5424L9.16812 12.5828L9.14724 12.6276L9.13222 12.661L9.10665 12.7186L9.08929 12.7602L9.07122 12.8038C9.06541 12.8183 9.0611 12.8293 9.05737 12.8389C9.05537 12.844 9.05355 12.8486 9.05175 12.8532L9.0494 12.8596L9.04917 12.8605L9.03579 12.895C9.0257 12.9222 9.01726 12.9455 9.00881 12.9693L9.00295 12.986L8.98887 13.0273L8.97503 13.0701L8.96142 13.113L8.95227 13.1434L8.94312 13.1731L8.9342 13.2047L8.92998 13.2193L8.91755 13.265L8.90699 13.3066L8.89268 13.3626L8.88376 13.4017C8.88024 13.4165 8.87672 13.4318 8.87156 13.4565L8.86218 13.5004L8.85162 13.555L8.84411 13.5978L8.83473 13.6517L8.82769 13.6972L8.81971 13.7516L8.81385 13.7957L8.80751 13.8494L8.80235 13.8965L8.79742 13.9508L8.79367 13.9966L8.79038 14.048L8.78991 14.0539L8.78921 14.0617L8.7871 14.0969L8.78499 14.1545L8.78452 14.1643L8.78334 14.1986L8.78241 14.2493L8.78194 14.3003L8.78241 14.3528L8.78334 14.4059L8.78358 14.4075L8.78499 14.4587L8.78757 14.5115V14.5121L8.7878 14.5137L8.79062 14.5638L8.79437 14.6161L8.79883 14.6687L8.80376 14.718L8.80399 14.7201C8.81079 14.788 8.81994 14.8563 8.83074 14.9253L8.83871 14.9752L8.84786 15.0247V15.0259L8.84833 15.0273L8.84857 15.0291L8.85748 15.0773L8.86757 15.1269L8.86781 15.128C8.8779 15.1754 8.88845 15.2224 8.90018 15.2691L8.90722 15.2965L8.9145 15.3241V15.3248L8.91497 15.3264L8.92834 15.3756L8.94195 15.4238L8.94218 15.4245C8.94764 15.4434 8.95365 15.4624 8.95935 15.4811C8.96052 15.485 8.96168 15.4888 8.96283 15.4926L8.96682 15.5058L8.97104 15.5193L8.97151 15.5202L8.97174 15.5211L8.98746 15.5694L9.00318 15.6157L9.00389 15.6171L9.02031 15.664L9.0372 15.7097L9.03767 15.7101L9.03814 15.7117L9.05527 15.7568L9.07286 15.8013L9.07568 15.8077L9.09351 15.8511L9.11251 15.8952L9.11345 15.8975L9.13081 15.9362L6.14225 17.6168V6.63923C6.14225 5.98721 6.50309 5.41746 7.04084 5.10871L7.07181 5.09157L12.6135 1.97477Z" fill="#2E4DFD"/>
<path d="M13.4719 6.84514L23.2318 12.3339C23.8113 12.6598 24.1374 13.2495 24.1431 13.8574V20.1253C24.1445 20.2868 24.1191 20.4082 24.0558 20.5115C23.9927 20.6146 23.8932 20.6966 23.7461 20.78L18.1362 23.9352C17.6008 24.2095 16.9375 24.2186 16.3751 23.9021L13.9787 22.5546L13.9067 22.5139L13.9787 22.4737L20.8124 18.6354C20.868 18.6027 20.9122 18.56 20.9408 18.512C20.9624 18.4752 20.975 18.4357 20.9757 18.3961C20.9767 18.3568 20.9664 18.3166 20.9429 18.2784C20.9152 18.2332 20.8695 18.19 20.8019 18.1521L16.8899 15.9519L16.8535 15.9316L16.8697 15.8939L16.8709 15.8907L16.8887 15.8498L16.9058 15.8084L16.9244 15.7622L16.9401 15.722L16.9441 15.7113L16.96 15.669L16.9753 15.6276L16.976 15.6253L16.991 15.5819L17.0055 15.5392L17.0081 15.5321L17.0217 15.4898L17.0349 15.4473L17.0358 15.4441C17.0945 15.2503 17.1381 15.0535 17.1667 14.8561C17.1723 14.8159 17.1773 14.7775 17.1815 14.7407C17.186 14.7021 17.1897 14.6637 17.1932 14.6253V14.6241L17.1967 14.5802L17.1996 14.5357L17.1998 14.5293L17.2021 14.4897L17.204 14.4495L17.2047 14.4319L17.2059 14.3926L17.2068 14.3407C17.2071 14.3238 17.2073 14.3046 17.2071 14.2841V14.2489L17.2064 14.208L17.2054 14.1661L17.2052 14.1602L17.2038 14.1177L17.2017 14.0745L17.2012 14.0692C17.1939 13.9401 17.1806 13.8108 17.1611 13.6825C17.1571 13.6547 17.1529 13.6298 17.1491 13.6078C17.1454 13.5859 17.1407 13.5603 17.1355 13.5335V13.5326L17.1346 13.5281L17.1261 13.486L17.1172 13.4444L17.116 13.4382L17.1076 13.4003L17.0989 13.3626L17.0942 13.3436L17.0855 13.3071L17.0759 13.27L17.0724 13.2563L17.0525 13.1841L17.0461 13.1626L17.0367 13.1306L17.0175 13.0685L17.0083 13.0404L16.999 13.0118L16.9865 12.9752L16.9675 12.9215L16.957 12.8932L16.9457 12.8621L16.934 12.8315L16.9251 12.8086L16.9122 12.7764L16.8992 12.7449L16.8913 12.7261C16.8603 12.6523 16.8268 12.5787 16.7906 12.5056L16.7479 12.4206L16.7475 12.4203L16.7472 12.4199L16.7411 12.4082L16.7273 12.3819L16.7132 12.3561L16.6935 12.3202L16.6717 12.2814L16.6677 12.2747L16.6674 12.2743L16.6466 12.2384C16.6358 12.2199 16.6285 12.208 16.6212 12.1961L16.6191 12.1927L16.5968 12.1559L16.583 12.1337L16.5682 12.1109L16.5445 12.0741L16.5173 12.0327L16.4901 11.9932L16.4607 11.9514L16.4349 11.9148L16.4054 11.8748L16.3831 11.8456L16.3775 11.8382L16.3446 11.7953L16.3165 11.7596L16.2867 11.7226C16.2712 11.7041 16.2618 11.6927 16.2524 11.6817L16.2479 11.6762L16.2475 11.676L16.2233 11.6472C16.2043 11.625 16.1877 11.6063 16.1708 11.5873L16.1588 11.5741L16.1292 11.5414L16.0983 11.5082L16.0666 11.4753L16.0222 11.4298L15.9986 11.4065L15.9875 11.3958L15.9535 11.3624L15.9218 11.3327L15.8791 11.2925L15.8489 11.2655C15.8374 11.255 15.8254 11.2445 15.8062 11.2278L15.7719 11.1979L15.7285 11.162L15.6943 11.1339L15.6511 11.0991L15.6142 11.0706L15.5697 11.0365L15.5335 11.0096L15.489 10.9773L15.4495 10.9495L15.4038 10.9181L15.3648 10.8921L15.3271 10.8676L15.3207 10.8635L15.3158 10.8601L15.3095 10.856L15.279 10.8368L15.229 10.8057L15.1905 10.7824L15.1457 10.7561L15.1009 10.7303L15.054 10.7045L15.0061 10.6786L15.0047 10.6784L14.9585 10.6537L14.9104 10.6295L14.9097 10.629L14.908 10.6286L14.8621 10.606L14.8137 10.5829L14.7649 10.5605L14.7185 10.5397L14.7164 10.5388C14.6528 10.5111 14.5876 10.4844 14.5207 10.459L14.4726 10.441L14.4238 10.4236L14.4229 10.4234L14.4212 10.4227L14.4198 10.422L14.3722 10.4055L14.3231 10.3893L14.3227 10.3891L14.3217 10.3889C14.2748 10.3738 14.2274 10.3594 14.1803 10.3457L14.1526 10.3379L14.1242 10.3303L14.1237 10.3299L14.1223 10.3294L14.0719 10.3162L14.0219 10.3036L14.0212 10.3034C13.9975 10.2977 13.9738 10.292 13.9501 10.2867L13.9365 10.2837L13.9224 10.2805L13.9217 10.2803L13.9203 10.2801L13.8699 10.2693L13.8206 10.2593L13.8192 10.259L13.7694 10.2497L13.7199 10.241L13.7178 10.2408L13.6695 10.2325L13.6207 10.2254L13.6137 10.2243L13.5663 10.2179L13.5177 10.2117L13.5149 10.2113L13.4719 10.2067V6.84514Z" fill="#2E4DFD"/>
<path d="M5.23569 10.9467L5.23146 18.7115C5.23264 18.7748 5.24859 18.8338 5.27698 18.8816C5.29903 18.9184 5.32789 18.9485 5.36238 18.9689C5.3971 18.9894 5.43816 19.0006 5.48391 19.0002C5.53764 18.9993 5.59911 18.9821 5.66644 18.9444L9.61483 16.7239L9.6404 16.7564L9.64252 16.7587L9.66997 16.7941L9.69812 16.8295L9.70164 16.8341L9.72979 16.8681L9.75771 16.9015L9.76522 16.9106L9.79478 16.9449L9.82387 16.9783L9.82575 16.9803L9.85672 17.0146L9.88746 17.0485L9.89262 17.0539L9.92335 17.0864L9.95479 17.1188L9.95714 17.1214C10.1 17.2678 10.253 17.4029 10.4144 17.5256C10.4473 17.5506 10.4792 17.5741 10.5097 17.596C10.5416 17.6189 10.5739 17.6415 10.6066 17.6634L10.6073 17.6639L10.6448 17.6888L10.6828 17.7135L10.6882 17.7172L10.7222 17.7389L10.7572 17.7603L10.7727 17.7699L10.8067 17.7905L10.8407 17.8104L10.8524 17.8175C10.8672 17.8259 10.8843 17.8358 10.9029 17.8458L10.9127 17.8515L10.9228 17.857L10.9341 17.8632L10.9707 17.8835L11.0087 17.9034L11.0139 17.9064L11.0526 17.9263L11.0918 17.9459L11.0967 17.9482C11.2152 18.0069 11.3367 18.0604 11.4606 18.1077C11.4876 18.1182 11.5115 18.1274 11.5331 18.1349C11.5544 18.1429 11.5793 18.1516 11.6058 18.1607L11.6065 18.1612L11.6112 18.1626L11.6527 18.1765L11.6942 18.1902L11.7003 18.1921L11.7381 18.2037L11.7759 18.2151L11.7951 18.2211L11.8322 18.2316L11.8697 18.2421L11.8838 18.2458L11.9207 18.2556L11.958 18.2652L11.9802 18.2707L12.0133 18.2787L12.0457 18.2864L12.0783 18.2935L12.1379 18.3063L12.1769 18.3141L12.2057 18.3196L12.2339 18.3251L12.2644 18.3303L12.2977 18.3363L12.3305 18.3417L12.3556 18.3454L12.3908 18.3507L12.4253 18.3557L12.4457 18.3584C12.5269 18.3692 12.6093 18.3776 12.6921 18.3836L12.7409 18.3872L12.7892 18.39L12.7897 18.3897H12.7904L12.8035 18.3907L12.8338 18.392L12.8638 18.3932L12.9053 18.3945L12.9509 18.3955H12.9595L13.0018 18.3959C13.0234 18.3959 13.0377 18.3959 13.0522 18.3957L13.056 18.3955L13.0998 18.395L13.154 18.3936L13.1989 18.3918L13.2491 18.3895L13.2979 18.3863L13.3499 18.3827L13.3952 18.379L13.4454 18.3742L13.4827 18.3701L13.4921 18.3692L13.5466 18.3628L13.6404 18.3502C13.6604 18.3474 13.6742 18.3449 13.6864 18.3429C13.689 18.3425 13.6914 18.3421 13.6939 18.3417L13.7009 18.3404L13.7016 18.3401L13.7389 18.3342C13.7683 18.3294 13.7934 18.3248 13.8185 18.3198L13.8361 18.3166L13.88 18.3079L13.925 18.2983L13.97 18.288L14.0017 18.2807L14.0327 18.2734L14.0653 18.2652L14.0803 18.2613L14.1272 18.249L14.1695 18.2375L14.2265 18.2213L14.2654 18.2094C14.2807 18.2046 14.2959 18.2003 14.3206 18.1923L14.3642 18.1779L14.4179 18.1596L14.4597 18.145L14.5122 18.1258L14.5561 18.1089L14.6089 18.0883L14.6509 18.0712L14.7016 18.0499L14.7462 18.0305L14.7966 18.0076L14.8395 17.9877L14.8801 17.9681L14.8872 17.9649L14.8923 17.9621L14.8994 17.9589L14.9317 17.9432L14.9845 17.9162L14.9932 17.9116L15.0242 17.8956L15.0699 17.8712L15.1154 17.8458L15.1619 17.8193L15.2086 17.7917L15.2095 17.791L15.2546 17.764L15.3003 17.7354L15.301 17.7352L15.3022 17.7341L15.3451 17.7069L15.39 17.6774L15.4343 17.6474L15.4761 17.6187L15.4777 17.6173C15.5342 17.5775 15.5908 17.5359 15.6466 17.4923L15.687 17.4605L15.7266 17.4281L15.7273 17.4274L15.7287 17.4265L15.7299 17.4253L15.7684 17.3935L15.8076 17.3602L15.808 17.3599L15.8083 17.3593C15.8456 17.327 15.8819 17.2948 15.9176 17.2617L15.9385 17.242L15.9594 17.2219L15.9598 17.2217L15.961 17.2208L15.9981 17.1847L16.034 17.149L16.0347 17.1486C16.0518 17.1312 16.0685 17.1143 16.0849 17.0971L16.0947 17.0871L16.1044 17.0768L16.1051 17.0759L16.1058 17.0752L16.141 17.0379L16.1743 17.0014L16.1752 17.0002L16.2085 16.963L16.2409 16.9257L16.2411 16.9253L16.2423 16.9239L16.2735 16.8873L16.3043 16.8499L16.3087 16.8444L16.3383 16.8076L16.3681 16.7696L16.3697 16.7676L16.3953 16.7338L16.4326 16.7546L19.3839 18.4142L19.3123 18.4549L9.62422 23.9032C9.04471 24.2291 8.35728 24.2095 7.8139 23.9103L7.7834 23.8929L2.24149 20.7764C2.0972 20.6964 2.00195 20.6146 1.94188 20.5094C1.88206 20.4048 1.85859 20.2798 1.85789 20.1141L1.85742 13.8039C1.88159 13.2154 2.20536 12.6512 2.7675 12.3349L5.23569 10.9467Z" fill="#2E4DFD"/>
<path d="M13 17.5095C11.1674 17.5095 9.68113 16.0541 9.68113 14.2595C9.68113 12.465 11.1674 11.0095 13 11.0095C14.8332 11.0095 16.3194 12.465 16.3194 14.2595C16.3194 16.0541 14.8332 17.5095 13 17.5095Z" fill="#2E4DFD"/>
</svg>
